<svg xmlns="http://www.w3.org/2000/svg" xmlns:xlink="http://www.w3.org/1999/xlink" viewBox="0 0 777.36 256.89"><defs><style>.cls-1{fill:none;}.cls-2{font-size:43.61px;fill:#f9e6a3;font-family:Futura-MediumItalic, Futura MediumItalic;font-weight:500;font-style:italic;}.cls-3{letter-spacing:-0.01em;}.cls-4{fill:#9d0b00;}.cls-5{fill:#fff;}.cls-6{clip-path:url(#clip-path);}.cls-7{fill:#5cbc91;}.cls-8{clip-path:url(#clip-path-2);}.cls-9{fill:#b60f00;}.cls-10{fill:#4db268;}.cls-11,.cls-12{fill:#385f3d;}.cls-12,.cls-13{font-size:47.9px;font-family:Futura-Bold, Futura Bold;font-weight:700;}.cls-13,.cls-14{fill:#dcf1d9;}.cls-15{fill:#daef43;}</style><clipPath id="clip-path" transform="translate(0 -56.31)"><rect class="cls-1" x="14.29" y="159.48" width="129.41" height="129.41" rx="22.52" transform="translate(-0.57 0.2) rotate(-0.15)"/></clipPath><clipPath id="clip-path-2" transform="translate(0 -56.31)"><rect class="cls-1" x="222.63" y="163.36" width="129.41" height="129.41" rx="22.52" transform="translate(-0.58 0.73) rotate(-0.15)"/></clipPath></defs><title>DATES AND REG</title><g id="Layer_2" data-name="Layer 2"><g id="Layer_1-2" data-name="Layer 1"><text class="cls-2" transform="translate(170.61 174.66) rotate(-0.15)"><tspan class="cls-3">t</tspan><tspan x="14.17" y="0">o</tspan></text><rect class="cls-4" x="22.98" y="167.89" width="129.41" height="129.41" rx="22.52" transform="translate(-0.59 -56.09) rotate(-0.15)"/><rect class="cls-5" x="14.29" y="159.48" width="129.41" height="129.41" rx="22.52" transform="translate(-0.57 -56.11) rotate(-0.15)"/><g class="cls-6"><rect class="cls-7" x="0.07" y="151.81" width="155.51" height="56.5" transform="matrix(1, 0, 0, 1, -0.46, -56.11)"/></g><path d="M34.29,175.52a38.41,38.41,0,0,1,6.07-.46c3.92,0,6.59.79,8.51,2.39s3.28,4.12,3.29,7.66a10.8,10.8,0,0,1-3.23,8.31c-2.09,1.88-5.38,2.85-9.44,2.86a40,40,0,0,1-5.15-.26Zm3.85,17.66a13.56,13.56,0,0,0,2.12.09c5,0,7.89-2.73,7.88-8,0-4.6-2.65-7.24-7.44-7.23a12.6,12.6,0,0,0-2.6.23Z" transform="translate(0 -56.31)"/><path d="M67.13,186.76l-7.86,0v6.12l8.79,0V196l-12.6,0,0-20.86,12.14,0v3.14l-8.32,0v5.36l7.86,0Z" transform="translate(0 -56.31)"/><path d="M86.39,195.34a13.41,13.41,0,0,1-5.41,1c-6.62,0-10.66-4.13-10.67-10.48,0-6.86,4.76-11,11.13-11a11.82,11.82,0,0,1,5.06.91l-.82,3a10,10,0,0,0-4.07-.81c-4.25,0-7.31,2.68-7.29,7.69,0,4.6,2.69,7.5,7.28,7.49a10.82,10.82,0,0,0,4.15-.77Z" transform="translate(0 -56.31)"/><path d="M94.38,174.74a38.52,38.52,0,0,1-3.32,7.92l-2.35.24a45.57,45.57,0,0,0,2-7.87Z" transform="translate(0 -56.31)"/><path d="M96.48,195.94v-2.32l2.38-2.22c4.72-4.39,6.94-6.81,7-9.47,0-1.81-1-3.38-3.6-3.37a7.22,7.22,0,0,0-4.29,1.68l-1.12-2.7a10.11,10.11,0,0,1,6.17-2.08c4.46,0,6.65,2.79,6.66,6.08,0,3.54-2.53,6.39-6,9.64l-1.73,1.53v.07l8.24,0v3.15Z" transform="translate(0 -56.31)"/><path d="M113.81,192a10,10,0,0,0,4.59,1.22c2.9,0,4.07-1.65,4.06-3.23,0-2.37-2.26-3.4-4.58-3.4h-1.74v-2.78h1.7c1.75,0,4-.81,4-2.81,0-1.39-1-2.52-3.23-2.52a8.29,8.29,0,0,0-4.11,1.27l-.87-2.74a11.12,11.12,0,0,1,5.79-1.56c4.16,0,6.28,2.28,6.29,4.91,0,2.1-1.23,3.82-3.68,4.71v.06a5.08,5.08,0,0,1,4.42,5c0,3.4-2.84,6.11-7.81,6.12a10.92,10.92,0,0,1-5.64-1.38Z" transform="translate(0 -56.31)"/><path d="M64.55,254c0-5.43,3.07-9.11,8-11.29v-.16c-4.36-2.24-6.5-5.89-6.51-9.82,0-7.6,6.79-12.62,15.75-12.64,10.5,0,14.87,6,14.88,11.46,0,3.86-2.06,7.67-6.49,9.91v.16c4.35,1.68,8.25,5.35,8.27,11.14,0,8.13-6.79,13.62-17.2,13.65C69.82,266.48,64.57,260.11,64.55,254Zm23.18-.45c0-3.9-3-6.23-7.08-7.32-3.43,1-5.42,3.44-5.41,6.67a6.18,6.18,0,0,0,6.38,6.29C85.29,259.22,87.74,256.8,87.73,253.59ZM75.9,232.39c0,3,2.7,5,6.34,6.09a6.16,6.16,0,0,0,4.53-5.72c0-2.77-1.61-5.56-5.48-5.55C77.72,227.22,75.89,229.62,75.9,232.39Z" transform="translate(0 -56.31)"/><rect class="cls-4" x="231.84" y="172.15" width="129.41" height="129.41" rx="22.52" transform="translate(-0.6 -55.56) rotate(-0.15)"/><rect class="cls-5" x="222.63" y="163.36" width="129.41" height="129.41" rx="22.52" transform="translate(-0.58 -55.58) rotate(-0.15)"/><g class="cls-8"><rect class="cls-7" x="208.41" y="155.69" width="155.51" height="56.5" transform="translate(-0.47 -55.58) rotate(-0.15)"/></g><path d="M243.35,180.88a39.67,39.67,0,0,1,6.08-.46c3.91,0,6.58.8,8.5,2.39s3.28,4.13,3.29,7.67a10.82,10.82,0,0,1-3.22,8.3c-2.09,1.89-5.39,2.85-9.44,2.86a39.78,39.78,0,0,1-5.15-.26Zm3.86,17.66a14.67,14.67,0,0,0,2.12.1c4.95,0,7.88-2.74,7.87-8,0-4.6-2.65-7.25-7.43-7.24a13.19,13.19,0,0,0-2.6.23Z" transform="translate(0 -56.31)"/><path d="M276.19,192.12l-7.86,0,0,6.12,8.79,0v3.13l-12.6,0-.05-20.86,12.14,0v3.14l-8.33,0V189l7.86,0Z" transform="translate(0 -56.31)"/><path d="M295.45,200.71a13.41,13.41,0,0,1-5.41.95c-6.61,0-10.65-4.13-10.67-10.48,0-6.85,4.76-11,11.14-11a11.77,11.77,0,0,1,5.05.91l-.82,3a9.8,9.8,0,0,0-4.07-.8c-4.25,0-7.3,2.67-7.29,7.68,0,4.6,2.7,7.5,7.28,7.49a11.12,11.12,0,0,0,4.16-.76Z" transform="translate(0 -56.31)"/><path d="M303.45,180.11a38.43,38.43,0,0,1-3.33,7.92l-2.34.23a46.62,46.62,0,0,0,2-7.86Z" transform="translate(0 -56.31)"/><path d="M305.54,201.3V199l2.37-2.23c4.72-4.39,6.95-6.81,7-9.46,0-1.82-1-3.39-3.6-3.38a7.16,7.16,0,0,0-4.29,1.69l-1.13-2.71a10.06,10.06,0,0,1,6.17-2.07c4.46,0,6.65,2.78,6.66,6.07,0,3.54-2.52,6.39-6,9.65l-1.74,1.53v.06l8.24,0v3.14Z" transform="translate(0 -56.31)"/><path d="M322.87,197.32a10.08,10.08,0,0,0,4.59,1.22c2.91,0,4.08-1.65,4.06-3.23,0-2.37-2.26-3.4-4.58-3.4H325.2v-2.78h1.69c1.76,0,4-.81,4-2.81,0-1.39-1-2.52-3.22-2.51a8.06,8.06,0,0,0-4.11,1.27l-.87-2.75a11.09,11.09,0,0,1,5.79-1.56c4.15,0,6.27,2.29,6.28,4.91,0,2.1-1.23,3.83-3.68,4.71v.06a5.1,5.1,0,0,1,4.42,5c0,3.39-2.84,6.1-7.81,6.11A10.88,10.88,0,0,1,322,200.2Z" transform="translate(0 -56.31)"/><path d="M263.55,233.92h-.14L254.9,238l-1.75-7.86L265,224.58l8.65,0,.11,44.8-10.13,0Z" transform="translate(0 -56.31)"/><path d="M320.55,224.44l0,6.59L302.2,269.29l-11.12,0,18.37-36.08v-.14l-20.54.05,0-8.63Z" transform="translate(0 -56.31)"/><path class="cls-9" d="M751,235.34c-9.81,4.13-17.26,11.79-19.27,21.24-42.92-.27-86.46-6.29-129-.35s-83.1,18.71-122.57,32.65c-5.55-7.86-15.54-12.44-26-12q-9.61-45-19.43-89.87c9.17-7.2,16.32-17.43,17.79-28.34C491.69,144.85,532,132,574.11,126.07c42.54-5.95,86.08.08,129,.35,6.07,8.9,16.26,16.9,28.15,19.19Q741.12,190.48,751,235.34Z" transform="translate(0 -56.31)"/><path class="cls-9" d="M698.19,114.94c-42.13-.5-84.83-6.11-126.61-.4-41.31,5.65-81,18.33-119.42,31.76-12.43,4.4-24.77,9-37.07,13.64l7.41,33.72q9.44,42.92,18.86,85.82,3.69,16.8,7.39,33.61l0,.11c11.91-4.68,23.89-9.24,36-13.55l0-.1c38.75-13.6,78.86-26.17,120.49-31.86,41.79-5.71,84.48-.1,126.62.4a267.79,267.79,0,0,0,39.37-2.58l-7.41-33.72L745,146.09l-7.41-33.72A269.17,269.17,0,0,1,698.19,114.94ZM751,235.34c-9.81,4.13-17.26,11.79-19.27,21.24-42.92-.27-86.46-6.29-129-.35s-83.1,18.71-122.57,32.65c-5.55-7.86-15.54-12.44-26-12q-9.61-45-19.43-89.87c9.17-7.2,16.32-17.43,17.79-28.34C491.69,144.85,532,132,574.11,126.07c42.54-5.95,86.08.08,129,.35,6.07,8.9,16.26,16.9,28.15,19.19Q741.12,190.48,751,235.34Z" transform="translate(0 -56.31)"/><path class="cls-10" d="M757.11,220c-9.81,4.13-17.26,11.79-19.27,21.24-42.92-.27-86.46-6.29-129-.35s-83.1,18.71-122.57,32.65c-5.55-7.86-15.55-12.44-26-12q-9.62-45-19.43-89.87c9.17-7.2,16.32-17.43,17.79-28.34,39.24-13.78,79.53-26.68,121.66-32.56,42.54-6,86.08.08,129,.35,6.07,8.9,16.26,16.9,28.15,19.19Q747.26,175.17,757.11,220Z" transform="translate(0 -56.31)"/><path class="cls-11" d="M704.33,99.63c-42.13-.5-84.83-6.11-126.61-.4-41.31,5.65-81,18.32-119.42,31.76-12.43,4.4-24.77,9-37.07,13.64l7.41,33.72q9.44,42.92,18.86,85.82,3.69,16.8,7.39,33.61l0,.11c11.91-4.68,23.89-9.24,36-13.55l0-.1c38.75-13.6,78.86-26.18,120.49-31.86,41.79-5.71,84.48-.1,126.62.4a267.79,267.79,0,0,0,39.37-2.58L770,216.48l-18.84-85.7L743.7,97.06A269.17,269.17,0,0,1,704.33,99.63ZM757.11,220c-9.81,4.13-17.26,11.79-19.27,21.24-42.92-.27-86.46-6.29-129-.35s-83.1,18.71-122.57,32.65c-5.55-7.86-15.55-12.44-26-12q-9.62-45-19.43-89.87c9.17-7.2,16.32-17.43,17.79-28.34,39.24-13.78,79.53-26.68,121.66-32.56,42.54-6,86.08.08,129,.35,6.07,8.9,16.26,16.9,28.15,19.19Q747.26,175.17,757.11,220Z" transform="translate(0 -56.31)"/><text class="cls-12" transform="matrix(1.03, -0.51, 0.44, 0.9, 501.97, 175.4)"> </text><text class="cls-12" transform="matrix(1.05, -0.48, 0.42, 0.91, 512.25, 170.3)"> </text><text class="cls-12" transform="matrix(1.06, -0.45, 0.39, 0.92, 522.67, 165.52)"> </text><text class="cls-12" transform="translate(533.25 161.03) rotate(-21.28) scale(1.15 1)"> </text><text class="cls-12" transform="translate(543.94 156.86) rotate(-19.62) scale(1.15 1)"> </text><text class="cls-12" transform="matrix(1.1, -0.33, 0.29, 0.96, 554.54, 152.86)">3</text><text class="cls-12" transform="matrix(1.12, -0.26, 0.22, 0.97, 581.14, 144.81)">0</text><text class="cls-12" transform="matrix(1.14, -0.18, 0.16, 0.99, 608.28, 138.61)">0</text><text class="cls-12" transform="translate(635.73 134.26) rotate(-5.12) scale(1.15 1)">0</text><text class="cls-12" transform="translate(663.54 131.88) rotate(-1.93) scale(1.15 1)">/</text><text class="cls-12" transform="matrix(1.15, 0.01, -0.01, 1, 682.15, 131.27)">-</text><g id="layer1"><path id="path4158" class="cls-11" d="M532.12,217.19l-22.26-14.68-1.06-3.61c7.87-1.16,13.64-3.14,13-9.87l-16.48,3.38,1.41-4.49,13.17-2.6c-3.18-3.24-8.82-2.53-17.3-.46l1.71-4.47,27.85-5.9-1.54,4.38-7.7,1.62c1.82,1,3.34,2.3,3.78,3.57l8-1.76-1.55,4.34-5.3,1.21c1,5.78-3.81,10.34-10.95,12.66l22.53,15.15-7.24,1.53Z" transform="translate(0 -56.31)"/></g><text class="cls-13" transform="matrix(1.03, -0.51, 0.44, 0.9, 505.88, 172.19)"> </text><text class="cls-13" transform="matrix(1.05, -0.48, 0.42, 0.91, 516.16, 167.1)"> </text><text class="cls-13" transform="matrix(1.06, -0.45, 0.39, 0.92, 526.58, 162.31)"> </text><text class="cls-13" transform="translate(537.17 157.82) rotate(-21.28) scale(1.15 1)"> </text><text class="cls-13" transform="matrix(1.09, -0.39, 0.34, 0.94, 547.86, 153.66)"> </text><text class="cls-13" transform="matrix(1.1, -0.33, 0.29, 0.96, 558.46, 149.65)">3</text><text class="cls-13" transform="matrix(1.12, -0.26, 0.22, 0.97, 585.08, 141.6)">0</text><text class="cls-13" transform="translate(612.2 135.41) rotate(-9) scale(1.15 1)">0</text><text class="cls-13" transform="translate(639.64 131.05) rotate(-5.12) scale(1.15 1)">0</text><text class="cls-13" transform="matrix(1.15, -0.04, 0.03, 1, 667.46, 128.68)">/</text><text class="cls-13" transform="translate(686.07 128.06) rotate(0.48) scale(1.15 1)">-</text><g id="layer1-2" data-name="layer1"><path id="path4158-2" data-name="path4158" class="cls-14" d="M536,214l-22.27-14.67-1.06-3.62c7.87-1.15,13.64-3.14,13-9.87l-16.47,3.38,1.4-4.49,13.17-2.6c-3.17-3.24-8.81-2.53-17.3-.46l1.72-4.46L536,171.28l-1.54,4.38-7.7,1.62c1.83,1,3.34,2.31,3.79,3.58l8-1.77L537,183.43l-5.3,1.21c1,5.79-3.81,10.34-11,12.66l22.54,15.15L536,214Z" transform="translate(0 -56.31)"/></g><path class="cls-15" d="M436.88,93.28a16,16,0,0,1,5.44-1,7.22,7.22,0,0,1,4.06,1.22,6.5,6.5,0,0,1,2.42,3.41,6.37,6.37,0,0,1,.31,3.28,6.65,6.65,0,0,1-1.32,2.89,11,11,0,0,1-2.68,2.44l-1.2,1.11-8.36,2.84-1.14-3.24,6.2-2.11a6.81,6.81,0,0,0,2.53-1.4,3.77,3.77,0,0,0,1.16-1.88,3.68,3.68,0,0,0-.12-2.12,3.77,3.77,0,0,0-2.12-2.41,5.83,5.83,0,0,0-4.07.21l-4.7,1.6L440,117.78l-4.68,1.58-7.77-22.9Zm3.74,12.82,4.92-1.69,9.67,8,.08.2-5,1.7Z" transform="translate(0 -56.31)"/><path class="cls-15" d="M466.35,109.58a11.5,11.5,0,0,1-5.43.45,8.56,8.56,0,0,1-4.21-2,8.32,8.32,0,0,1-2.44-3.87l-.19-.65a9.4,9.4,0,0,1-.25-5,8.52,8.52,0,0,1,2.28-4.07,10.15,10.15,0,0,1,4.3-2.5,9.82,9.82,0,0,1,5.07-.36,7.06,7.06,0,0,1,3.72,2.11,10.23,10.23,0,0,1,2.27,4.11l.52,1.7-15.35,4.66-.86-2.85L466.63,98l-.09-.3a5,5,0,0,0-1-1.74,3.34,3.34,0,0,0-1.7-1,4.51,4.51,0,0,0-2.48.16,4.28,4.28,0,0,0-2.23,1.45,4.65,4.65,0,0,0-.9,2.44,8.52,8.52,0,0,0,.4,3.17l.2.65a5.66,5.66,0,0,0,1.42,2.43,4.76,4.76,0,0,0,2.37,1.29,5.87,5.87,0,0,0,3.05-.19,7.37,7.37,0,0,0,2.67-1.4,6.31,6.31,0,0,0,1.66-2.2l3,1.34a8.81,8.81,0,0,1-2.14,3.07A10.72,10.72,0,0,1,466.35,109.58Z" transform="translate(0 -56.31)"/><path class="cls-15" d="M474.1,97.38a10.85,10.85,0,0,1-.27-4.89,7.62,7.62,0,0,1,1.93-3.86,8.31,8.31,0,0,1,4-2.27,8.54,8.54,0,0,1,3.51-.28A6.23,6.23,0,0,1,486,87.22a9.1,9.1,0,0,1,2.18,2.34,19.75,19.75,0,0,1,1.72,3.28l.25.93a15.36,15.36,0,0,1-.06,4.71,7.08,7.08,0,0,1-5.58,5.89,7.74,7.74,0,0,1-8.16-2.4,10.55,10.55,0,0,1-2.2-4.25Zm4.68-.9A8.21,8.21,0,0,0,480,99.15a4.54,4.54,0,0,0,2,1.6,4.42,4.42,0,0,0,2.8,0,5.21,5.21,0,0,0,2.38-1.25,4.07,4.07,0,0,0,1.11-2,6.79,6.79,0,0,0,.16-2.4l-.73-2.71a7,7,0,0,0-.91-1.66,4.22,4.22,0,0,0-1.29-1.17,4.38,4.38,0,0,0-1.68-.55,5.57,5.57,0,0,0-2.09.21,4.44,4.44,0,0,0-2.41,1.44,4.6,4.6,0,0,0-1,2.43,8,8,0,0,0,.27,3Zm10.78-12.41,4.54,16.85a7,7,0,0,1-.09,4.3,7.39,7.39,0,0,1-2.56,3.36,13.38,13.38,0,0,1-7.17,2.54,11.71,11.71,0,0,1-2.95-.17,7,7,0,0,1-2.65-1l1.5-3a7.22,7.22,0,0,0,5.64.75,5.53,5.53,0,0,0,3.24-2,3.94,3.94,0,0,0,.45-3.43l-3.49-13-.64-4.06Z" transform="translate(0 -56.31)"/><path class="cls-15" d="M492.83,78.45a2,2,0,0,1,.32-1.7,2.85,2.85,0,0,1,1.76-1.07,3,3,0,0,1,2.09.13,2,2,0,0,1,1.08,1.35,2,2,0,0,1-.34,1.68A3,3,0,0,1,496,79.92a2.89,2.89,0,0,1-2.06-.13A2,2,0,0,1,492.83,78.45Zm10.3,20.82-4.62,1.13-4.27-17.46,4.62-1.13Z" transform="translate(0 -56.31)"/><path class="cls-15" d="M517.45,91a1.65,1.65,0,0,0-.55-.93,2.87,2.87,0,0,0-1.45-.56,13.68,13.68,0,0,0-2.9-.11,20.45,20.45,0,0,1-4-.19,6.71,6.71,0,0,1-2.92-1.11,3.72,3.72,0,0,1-1.46-2.29,4.32,4.32,0,0,1,.36-2.85,6.78,6.78,0,0,1,2.28-2.55,11,11,0,0,1,4-1.66,11.94,11.94,0,0,1,4.54-.24,6.83,6.83,0,0,1,3.26,1.37,4.58,4.58,0,0,1,1.61,2.63l-4.64,1a2.44,2.44,0,0,0-1.29-1.63,4.05,4.05,0,0,0-2.84-.19,4.8,4.8,0,0,0-1.78.72,2.62,2.62,0,0,0-.92,1,1.76,1.76,0,0,0-.13,1.15,1.46,1.46,0,0,0,.58.9,3,3,0,0,0,1.42.47,15.15,15.15,0,0,0,2.64.06,23.21,23.21,0,0,1,4.23.18,6.33,6.33,0,0,1,3,1.11,4,4,0,0,1,1.5,2.45,4.25,4.25,0,0,1-.41,3,7,7,0,0,1-2.45,2.52,12.65,12.65,0,0,1-4.19,1.65,11.76,11.76,0,0,1-4.89.18,7.31,7.31,0,0,1-3.38-1.55A4.84,4.84,0,0,1,505,93l4.47-1a2.69,2.69,0,0,0,1.06,1.52,3.56,3.56,0,0,0,1.73.57,7.1,7.1,0,0,0,3.93-.86,2.81,2.81,0,0,0,1-1A1.63,1.63,0,0,0,517.45,91Z" transform="translate(0 -56.31)"/><path class="cls-15" d="M533.36,77.5l-11.55,2.27-.58-3,11.54-2.27Zm-5.05-6.59,3.34,17a2.36,2.36,0,0,0,.51,1.18,1.28,1.28,0,0,0,.86.41,3.86,3.86,0,0,0,1.15-.07,7.89,7.89,0,0,0,.9-.23l.67-.23.62,3.11a11.15,11.15,0,0,1-1.26.53,11,11,0,0,1-1.71.46,7.54,7.54,0,0,1-2.87,0,3.91,3.91,0,0,1-2.21-1.21A5.58,5.58,0,0,1,527,89.1l-3.39-17.28Z" transform="translate(0 -56.31)"/><path class="cls-15" d="M543.62,90.82l-4.67.83L535.81,74l4.46-.79.84,3.43Zm3.68-15-.93.06c-.32,0-.64.08-1,.14a6,6,0,0,0-2.49.94,3.49,3.49,0,0,0-1.31,1.65,4.81,4.81,0,0,0-.25,2.21l-1.07.2a11.33,11.33,0,0,1,0-4.14,6.5,6.5,0,0,1,1.54-3.19A5.46,5.46,0,0,1,545,72c.27,0,.56-.07.9-.09a4.26,4.26,0,0,1,.76,0Z" transform="translate(0 -56.31)"/><path class="cls-15" d="M561.83,75.58a2.84,2.84,0,0,0-1.22-2.06,3.8,3.8,0,0,0-2.78-.42,4.77,4.77,0,0,0-1.81.6,3,3,0,0,0-1.1,1,1.92,1.92,0,0,0-.25,1.3l-4.7.71a4.19,4.19,0,0,1,.64-2.84,7.36,7.36,0,0,1,2.64-2.47A12.15,12.15,0,0,1,557.63,70a11.8,11.8,0,0,1,4.21.06A6.17,6.17,0,0,1,565,71.65a5.48,5.48,0,0,1,1.55,3.26l1.18,7.83a11.08,11.08,0,0,0,.54,2.17,6.81,6.81,0,0,0,.84,1.57l0,.28-4.81.72a6,6,0,0,1-.75-1.58,11.91,11.91,0,0,1-.48-2Zm1.28,3.59-3.23.49A7.2,7.2,0,0,0,556.24,81a2.49,2.49,0,0,0-.93,2.35,2.21,2.21,0,0,0,1.1,1.62,3.6,3.6,0,0,0,2.45.35,5.76,5.76,0,0,0,2.34-.85A4.61,4.61,0,0,0,562.64,83a2.3,2.3,0,0,0,.41-1.43l1.77,1.6a5.7,5.7,0,0,1-.55,1.55,6.88,6.88,0,0,1-1.2,1.66,7.51,7.51,0,0,1-1.92,1.43,8.12,8.12,0,0,1-2.73.86,9,9,0,0,1-3.68-.15A6.09,6.09,0,0,1,552,87a4.51,4.51,0,0,1-1.31-2.58,4.88,4.88,0,0,1,1.79-4.71,13.49,13.49,0,0,1,6.7-2.56l3.53-.53Z" transform="translate(0 -56.31)"/><path class="cls-15" d="M580.19,70.33,568.52,71.8l-.38-3,11.67-1.47Zm-4.58-6.92,2.16,17.17a2.41,2.41,0,0,0,.42,1.21,1.35,1.35,0,0,0,.84.48,4.41,4.41,0,0,0,1.15,0,8.19,8.19,0,0,0,.91-.16l.69-.19.4,3.15a12.81,12.81,0,0,1-1.29.44,12.49,12.49,0,0,1-1.74.34,7.72,7.72,0,0,1-2.87-.14,4,4,0,0,1-2.12-1.37,5.58,5.58,0,0,1-1.07-2.87L570.9,64Z" transform="translate(0 -56.31)"/><path class="cls-15" d="M582.18,62.33a2,2,0,0,1,.54-1.64,2.87,2.87,0,0,1,1.89-.83,2.93,2.93,0,0,1,2,.4,2,2,0,0,1,.34,3.1,3,3,0,0,1-1.91.84,2.85,2.85,0,0,1-2-.41A2,2,0,0,1,582.18,62.33Zm7.51,22-4.73.52L583,67l4.72-.52Z" transform="translate(0 -56.31)"/><path class="cls-15" d="M592.3,74.78A9.4,9.4,0,0,1,593,70a8.41,8.41,0,0,1,3-3.54,11.87,11.87,0,0,1,10.37-.89,8.27,8.27,0,0,1,3.58,3,9.57,9.57,0,0,1,1.54,4.57l0,.35a9.47,9.47,0,0,1-.74,4.75,8.14,8.14,0,0,1-3,3.54,11.93,11.93,0,0,1-10.37.9,8.23,8.23,0,0,1-3.58-3,9.37,9.37,0,0,1-1.55-4.56Zm4.76-.07a7.84,7.84,0,0,0,.77,2.86,4.69,4.69,0,0,0,8.75-.75,7.93,7.93,0,0,0,.25-2.95l0-.35a8.09,8.09,0,0,0-.75-2.85,4.72,4.72,0,0,0-1.78-2,4.64,4.64,0,0,0-2.88-.56,4.58,4.58,0,0,0-2.7,1,4.65,4.65,0,0,0-1.4,2.27,8.11,8.11,0,0,0-.26,2.94Z" transform="translate(0 -56.31)"/><path class="cls-15" d="M620.37,81.75l-4.74.26-1-17.94,4.46-.24.49,3.81Zm-2.89-9.47a9.75,9.75,0,0,1,.8-4.61A7.56,7.56,0,0,1,621,64.48a9.41,9.41,0,0,1,7.79-.86,4.89,4.89,0,0,1,2.41,2,8.12,8.12,0,0,1,1,3.9l.63,11.55-4.76.26-.63-11.59a4.08,4.08,0,0,0-.52-1.95,2.32,2.32,0,0,0-1.28-1,5.82,5.82,0,0,0-2-.2,5.09,5.09,0,0,0-2.07.52,4.54,4.54,0,0,0-1.49,1.22,5.06,5.06,0,0,0-.88,1.75,6.13,6.13,0,0,0-.22,2.07Z" transform="translate(0 -56.31)"/><path class="cls-15" d="M652.37,80.6l-5,0-.19-24.19,4.94,0Zm12.71-20.84L651,59.88l0-3.46,14.1-.11Zm-1.53,10.53-12.49.1L651,67l12.49-.1Z" transform="translate(0 -56.31)"/><path class="cls-15" d="M676.74,81.07a11.55,11.55,0,0,1-5.3-1.27,8.5,8.5,0,0,1-3.38-3.2A8.2,8.2,0,0,1,667,72.16v-.68a9.53,9.53,0,0,1,1.34-4.86,8.56,8.56,0,0,1,3.43-3.16,11.16,11.16,0,0,1,9.8.19,7.17,7.17,0,0,1,2.88,3.17,10.45,10.45,0,0,1,.88,4.62l0,1.77-16-.35.07-3,11.34.25v-.32a5,5,0,0,0-.42-2,3.41,3.41,0,0,0-1.3-1.5,4.53,4.53,0,0,0-2.41-.62,4.25,4.25,0,0,0-2.56.68,4.62,4.62,0,0,0-1.62,2,8.44,8.44,0,0,0-.61,3.14v.68a5.67,5.67,0,0,0,.59,2.75,4.78,4.78,0,0,0,1.85,2,5.88,5.88,0,0,0,3,.77,7.19,7.19,0,0,0,3-.5,6.29,6.29,0,0,0,2.27-1.58l2.44,2.22a8.77,8.77,0,0,1-3,2.25A10.84,10.84,0,0,1,676.74,81.07Z" transform="translate(0 -56.31)"/><path class="cls-15" d="M697.4,81.87a11.66,11.66,0,0,1-5.26-1.43,8.59,8.59,0,0,1-3.28-3.3,8.39,8.39,0,0,1-1-4.47l0-.68a9.37,9.37,0,0,1,1.48-4.82,8.42,8.42,0,0,1,3.53-3,10.09,10.09,0,0,1,4.89-.89,9.9,9.9,0,0,1,4.89,1.38,7.18,7.18,0,0,1,2.79,3.26,10.27,10.27,0,0,1,.73,4.63l-.09,1.78-16-.84.16-3,11.33.59v-.31a5,5,0,0,0-.35-2A3.38,3.38,0,0,0,700,67.22a4.48,4.48,0,0,0-2.39-.69,4.34,4.34,0,0,0-2.58.6,4.67,4.67,0,0,0-1.68,2,8.48,8.48,0,0,0-.7,3.12l0,.68a5.63,5.63,0,0,0,.5,2.77,4.83,4.83,0,0,0,1.79,2,6,6,0,0,0,2.93.86,7.51,7.51,0,0,0,3-.41,6.22,6.22,0,0,0,2.31-1.51l2.38,2.29a9.09,9.09,0,0,1-3.06,2.16A10.75,10.75,0,0,1,697.4,81.87Z" transform="translate(0 -56.31)"/></g></g></svg>