<svg xmlns="http://www.w3.org/2000/svg" viewBox="0 0 824.22 486.61"><defs><style>.cls-1{font-size:113.92px;fill:#f3c449;}.cls-1,.cls-4{font-family:Aileron-Bold, Aileron Bold;font-weight:700;}.cls-2{letter-spacing:0.01em;}.cls-3{fill:#9ad3b6;}.cls-4{font-size:96.83px;fill:#2b499c;}.cls-5{letter-spacing:0em;}.cls-6{letter-spacing:-0.08em;}.cls-7{fill:#f1e8df;}.cls-8{fill:#343e86;}.cls-9{fill:#e04950;}.cls-10{fill:#782e8e;opacity:0.33;}</style></defs><title>GAME DESIGN</title><g id="Layer_2" data-name="Layer 2"><g id="Layer_1-2" data-name="Layer 1"><text class="cls-1" transform="translate(0 55.59) scale(0.58)"><tspan class="cls-2">K</tspan><tspan x="62.88" y="0">ANIMUNI</tspan></text><rect class="cls-3" x="26.27" y="367.07" width="527.9" height="107.23" transform="translate(-19.39 14.06) rotate(-2.69)"/><text class="cls-4" transform="translate(65.59 449.63) rotate(-2.69) scale(0.58)">FOR EDU<tspan class="cls-5" x="361.27" y="0">C</tspan><tspan class="cls-6" x="417.81" y="0">A</tspan><tspan x="469.62" y="0">TION</tspan></text><rect class="cls-7" x="0.15" y="72.51" width="92.96" height="92.96" rx="9.7"/><rect class="cls-7" x="104.59" y="72.51" width="92.96" height="92.96" rx="9.7"/><rect class="cls-7" x="209.04" y="72.51" width="92.96" height="92.96" rx="9.7"/><rect class="cls-7" x="313.48" y="72.51" width="92.96" height="92.96" rx="9.7"/><rect class="cls-7" x="0.15" y="182.96" width="92.96" height="92.96" rx="9.7"/><rect class="cls-7" x="104.59" y="182.96" width="92.96" height="92.96" rx="9.7"/><rect class="cls-7" x="209.04" y="182.96" width="92.96" height="92.96" rx="9.7"/><rect class="cls-7" x="313.48" y="182.96" width="92.96" height="92.96" rx="9.7"/><rect class="cls-7" x="417.93" y="182.96" width="92.96" height="92.96" rx="9.7"/><rect class="cls-7" x="522.38" y="182.96" width="92.96" height="92.96" rx="4.53"/><rect class="cls-7" x="417.93" y="290.59" width="92.96" height="92.96" rx="9.7"/><rect class="cls-7" x="522.38" y="290.59" width="92.96" height="92.96" rx="9.7"/><rect class="cls-7" x="731.27" y="290.59" width="92.96" height="92.96" rx="9.7"/><rect class="cls-7" x="0.15" y="290.59" width="92.96" height="92.96" rx="9.7"/><path class="cls-7" d="M197.54,310.44v53.27a19.84,19.84,0,0,1-19.84,19.84H124.43a19.85,19.85,0,0,1-19.84-19.84V310.44a19.85,19.85,0,0,1,19.84-19.86H177.7A19.84,19.84,0,0,1,197.54,310.44Z"/><rect class="cls-7" x="209.04" y="290.59" width="92.96" height="92.96" rx="9.7"/><rect class="cls-7" x="313.48" y="290.59" width="92.96" height="92.96" rx="9.7"/><path class="cls-7" d="M719.77,310.44v53.27a19.84,19.84,0,0,1-19.84,19.84H646.66a19.85,19.85,0,0,1-19.84-19.84V310.44a19.85,19.85,0,0,1,19.84-19.86h53.27A19.85,19.85,0,0,1,719.77,310.44Z"/><path class="cls-8" d="M19.44,119.55c0-21.38,13-33.52,29.63-33.52a25.35,25.35,0,0,1,18.69,8.13l-8,9a13.84,13.84,0,0,0-10.72-4.59c-8.39,0-14.68,7.72-14.68,20.54,0,13.15,5.18,20.78,15.27,20.78a9.77,9.77,0,0,0,6.2-1.88V126.91H46.57v-11.8H68.83v29.51a30.67,30.67,0,0,1-20,7.74C32.47,152.36,19.44,141.12,19.44,119.55Z"/><path class="cls-8" d="M142.39,87.2h17.36l19.92,64H164.32l-8.26-32.39c-1.62-6.39-3.57-13.88-5.11-20.63h-.39c-1.56,6.75-3.34,14.24-5,20.63l-8.32,32.39H122.46Zm-6.74,37.49h30.61V136H135.65Z"/><path class="cls-8" d="M231.71,87.2H246.9l6.27,22.68,2.15,8.85h.39l2.12-8.85,6.3-22.68h15.18v64H267.07v-19.8c0-7.21,1.26-22.81,1.94-29.72h-.29l-4.91,17.17-5,15.41h-7l-5.07-15.41-4.58-17.17h-.34c.73,6.91,1.94,22.51,1.94,29.72v19.8h-12Z"/><path class="cls-8" d="M338,87.2h42.41V99.35H352.52v12.83h23.73v12.14H352.52V139h28.91v12.14H338Z"/><path class="cls-8" d="M24.08,197.65H41.76c18.56,0,30.76,9.72,30.76,31.7s-12.2,32.28-29.94,32.28H24.08ZM41,250c9.95,0,16.72-5.32,16.72-20.62s-6.77-20-16.72-20h-2.4V250Z"/><path class="cls-8" d="M128.67,197.65h42.41v12.14H143.15v12.83h23.73v12.15H143.15v14.72h28.91v12.14H128.67Z"/><path class="cls-8" d="M229,253.57l8.31-9.95c4.84,4,10.81,6.68,17,6.68s9-2.38,9-5.51c0-4.6-3.8-5.72-9.86-8.25L245.11,233c-7.09-2.69-13.56-8.13-13.56-17.44,0-10.6,9.54-19.07,23.44-19.07a31,31,0,0,1,21.25,8.38L269,214c-4.51-3.24-8.5-5-14.75-5-4.77,0-8,2-8,5.72s4.29,5.25,10.42,7.55l7.83,3.32c8.38,3.14,13.67,8.36,13.67,17.39,0,10.64-8.92,19.85-24.76,19.85A36.9,36.9,0,0,1,229,253.57Z"/><path class="cls-8" d="M337.78,249.49h14.94v-39.7H337.78V197.65h44.36v12.14H367.2v39.7h14.94v12.14H337.78Z"/><path class="cls-8" d="M437.22,230c0-21.38,13-33.53,29.64-33.53a25.39,25.39,0,0,1,18.69,8.14l-8,9A13.84,13.84,0,0,0,466.86,209c-8.4,0-14.69,7.72-14.69,20.54,0,13.15,5.18,20.78,15.27,20.78a9.76,9.76,0,0,0,6.21-1.89v-11h-9.3v-11.8h22.27v29.5a30.63,30.63,0,0,1-20,7.75C450.25,262.81,437.22,251.57,437.22,230Z"/><path class="cls-8" d="M545.89,197.65h14.84l13.46,31.81,5.48,14.06H580c-.65-6.74-2-15.7-2-23.25V197.65h13.8v64H577l-13.46-31.88-5.48-14h-.34c.65,7.08,2,15.65,2,23.18v22.69h-13.8Z"/><path class="cls-8" d="M15.57,305.25h15l1.88,34.08c.16,5.47.27,10.31.36,16.05h.36c.9-5.74,2.08-10.65,3.14-16l4.3-17.86h9.27l4,17.86c1,5.23,2.17,10.15,3.14,16h.39c.11-5.88.16-10.72.33-16l1.82-34.1H73.72l-7.94,64H50.33l-3.8-19.83a100.49,100.49,0,0,1-1.72-12.22h-.3c-.4,3.86-.92,8.15-1.69,12.22l-3.66,19.83H24.05Z"/><path class="cls-8" d="M232.88,305.28h22.74c13.56,0,24.71,4.71,24.71,19.93,0,14.71-11.15,21-24.71,21h-8.24v23h-14.5Zm21.57,29.47c7.6,0,11.68-3.27,11.68-9.54s-4.08-8.44-11.68-8.44h-7.07v18Zm8.53-1.6,20.42,36.11H267.2L253,342.43Z"/><path class="cls-8" d="M335.59,305.28h14.65v26.11h.37l18.85-26.11h16.08l-35.3,46.51v17.47H335.59Zm20.81,34.28,8.48-11.3,22.45,41H371.28Z"/><path class="cls-8" d="M439.9,361.2l8.31-9.95c4.84,4,10.81,6.68,17,6.68s9-2.38,9-5.51c0-4.6-3.8-5.72-9.85-8.25L456,340.61c-7.09-2.69-13.56-8.13-13.56-17.44,0-10.6,9.55-19.07,23.45-19.07a31,31,0,0,1,21.25,8.38l-7.3,9.13c-4.5-3.24-8.49-5-14.74-5-4.77,0-8,2-8,5.71s4.29,5.26,10.43,7.56l7.82,3.32c8.38,3.14,13.67,8.36,13.67,17.39,0,10.64-8.92,19.85-24.76,19.85A36.92,36.92,0,0,1,439.9,361.2Z"/><path class="cls-8" d="M543.65,305.28h14.51v24.63h17.36V305.28H590v64h-14.5v-26.7H558.16v26.7H543.65Z"/><path class="cls-8" d="M755.61,305.28h22.7c13.88,0,25.06,5,25.06,20.58,0,15.06-11.49,21.7-25.06,21.7h-8.22v21.7H755.61Zm21.86,30.79c7.93,0,11.7-3.56,11.7-10.21s-4.08-9.09-11.7-9.09h-7.38v19.3Z"/><circle class="cls-9" cx="151.07" cy="337.07" r="24.27"/><path class="cls-10" d="M175.34,337.07a24.25,24.25,0,0,1-12.75,21.36,22.66,22.66,0,1,0-34.66-28.72,24.28,24.28,0,0,1,47.41,7.36Z"/><circle class="cls-9" cx="673.3" cy="337.07" r="24.27"/><path class="cls-10" d="M697.57,337.07a24.24,24.24,0,0,1-12.76,21.36,22.65,22.65,0,1,0-34.65-28.72,24.28,24.28,0,0,1,47.41,7.36Z"/></g></g></svg>