<svg xmlns="http://www.w3.org/2000/svg" xmlns:xlink="http://www.w3.org/1999/xlink" viewBox="0 0 1665.24 198.08"><defs><style>.cls-1{fill:none;}.cls-2{fill:#b2ddc8;}.cls-3{fill:#fff;}.cls-4{fill:#fbc097;}.cls-5{fill:#ef4f3a;}.cls-6{fill:#ffe4b3;}.cls-7{fill:#fba922;}.cls-8{fill:#fbd7d1;}.cls-9{font-size:39.54px;fill:#f9e6a3;font-family:Futura-MediumItalic, Futura MediumItalic;font-weight:500;font-style:italic;}.cls-10{letter-spacing:-0.01em;}.cls-11{fill:#9d0b00;}.cls-12{clip-path:url(#clip-path);}.cls-13{fill:#5cbc91;}.cls-14{clip-path:url(#clip-path-2);}.cls-15{fill:#b60f00;}.cls-16{fill:#4db268;}.cls-17,.cls-18{fill:#385f3d;}.cls-18,.cls-19{font-size:34.59px;font-family:Futura-Bold, Futura Bold;font-weight:700;}.cls-19,.cls-20{fill:#dcf1d9;}.cls-21{fill:#daef43;}.cls-22{fill:#f58120;}.cls-23{fill:#77c5e8;}.cls-24{fill:#f4ca19;}</style><clipPath id="clip-path" transform="translate(0 -31.53)"><rect class="cls-1" x="481.82" y="76.09" width="117.33" height="117.33" rx="22.52" transform="translate(-0.34 1.37) rotate(-0.15)"/></clipPath><clipPath id="clip-path-2" transform="translate(0 -31.53)"><rect class="cls-1" x="670.71" y="79.61" width="117.33" height="117.33" rx="22.52" transform="translate(-0.35 1.85) rotate(-0.15)"/></clipPath></defs><title>Asset 13</title><g id="Layer_2" data-name="Layer 2"><g id="Layer_1-2" data-name="Layer 1"><rect class="cls-2" x="134.28" y="59.63" width="117" height="114.93" rx="14.76" transform="translate(38.93 -79.38) rotate(15.72)"/><ellipse class="cls-3" cx="193.16" cy="117.23" rx="14.57" ry="14.83" transform="matrix(0.27, -0.96, 0.96, 0.27, 27.86, 239.74)"/><rect class="cls-4" x="37.02" y="90.49" width="117" height="114.93" rx="14.76" transform="translate(43.65 -51.87) rotate(15.72)"/><ellipse class="cls-5" cx="73.92" cy="111.65" rx="14.57" ry="14.83" transform="translate(-53.61 120.93) rotate(-74.23)"/><ellipse class="cls-5" cx="95.52" cy="147.95" rx="14.57" ry="14.83" transform="matrix(0.27, -0.96, 0.96, 0.27, -72.82, 168.15)"/><ellipse class="cls-5" cx="116.83" cy="182.71" rx="14.57" ry="14.83" transform="translate(-90.75 213.97) rotate(-74.23)"/><ellipse class="cls-6" cx="335.5" cy="108.65" rx="52.71" ry="52.14"/><ellipse class="cls-7" cx="335.5" cy="108.65" rx="42.61" ry="42.14"/><circle class="cls-8" cx="18.39" cy="31.2" r="18.39"/><circle class="cls-4" cx="427.39" cy="81.2" r="18.39"/><text class="cls-9" transform="translate(623.55 109.38) rotate(-0.15)"><tspan class="cls-10">t</tspan><tspan x="12.85" y="0">o</tspan></text><rect class="cls-11" x="489.71" y="83.72" width="117.33" height="117.33" rx="22.52" transform="translate(-0.36 -30.14) rotate(-0.15)"/><rect class="cls-3" x="481.82" y="76.09" width="117.33" height="117.33" rx="22.52" transform="translate(-0.34 -30.16) rotate(-0.15)"/><g class="cls-12"><rect class="cls-13" x="468.93" y="69.14" width="140.99" height="51.23" transform="translate(-0.24 -30.16) rotate(-0.15)"/></g><path d="M499.88,90.62a36.6,36.6,0,0,1,5.51-.42c3.55,0,6,.73,7.72,2.17a8.47,8.47,0,0,1,3,6.95,9.83,9.83,0,0,1-2.93,7.53c-1.89,1.71-4.88,2.59-8.56,2.6a38.79,38.79,0,0,1-4.67-.24Zm3.5,16a12.22,12.22,0,0,0,1.92.09c4.49,0,7.15-2.48,7.14-7.27,0-4.17-2.4-6.57-6.74-6.56a11.21,11.21,0,0,0-2.36.21Z" transform="translate(0 -31.53)"/><path d="M529.66,100.81l-7.13,0v5.55l8,0v2.84l-11.43,0,0-18.91,11,0v2.84l-7.55,0V98l7.13,0Z" transform="translate(0 -31.53)"/><path d="M547.12,108.6a12.13,12.13,0,0,1-4.9.86c-6,0-9.67-3.74-9.68-9.5,0-6.22,4.31-10,10.1-10a10.56,10.56,0,0,1,4.58.83l-.74,2.75a9.08,9.08,0,0,0-3.69-.73c-3.86,0-6.63,2.42-6.62,7,0,4.17,2.45,6.8,6.61,6.79a10,10,0,0,0,3.76-.69Z" transform="translate(0 -31.53)"/><path d="M554.37,89.92a34.54,34.54,0,0,1-3,7.18l-2.12.21a42,42,0,0,0,1.8-7.13Z" transform="translate(0 -31.53)"/><path d="M556.26,109.13V107l2.16-2c4.28-4,6.29-6.17,6.31-8.58,0-1.65-.88-3.07-3.27-3.06a6.49,6.49,0,0,0-3.89,1.53l-1-2.45a9.11,9.11,0,0,1,5.59-1.89c4,0,6,2.53,6,5.51,0,3.21-2.29,5.79-5.47,8.75l-1.58,1.38v.06l7.47,0v2.85Z" transform="translate(0 -31.53)"/><path d="M572,105.53a9.28,9.28,0,0,0,4.16,1.11c2.63,0,3.69-1.5,3.68-2.93,0-2.15-2.05-3.09-4.15-3.08h-1.58V98.11h1.54c1.59,0,3.61-.73,3.6-2.55,0-1.26-.91-2.28-2.92-2.28a7.51,7.51,0,0,0-3.73,1.15l-.79-2.49A10.16,10.16,0,0,1,577,90.53c3.77,0,5.69,2.07,5.7,4.45a4.46,4.46,0,0,1-3.34,4.27v.06a4.6,4.6,0,0,1,4,4.54c0,3.08-2.57,5.53-7.08,5.54a9.92,9.92,0,0,1-5.11-1.25Z" transform="translate(0 -31.53)"/><path d="M527.32,161.81c0-4.92,2.78-8.26,7.22-10.24v-.14c-3.95-2-5.89-5.35-5.9-8.91,0-6.89,6.16-11.44,14.29-11.46,9.52,0,13.48,5.48,13.49,10.39a10,10,0,0,1-5.89,9v.15c4,1.52,7.49,4.84,7.5,10.09,0,7.38-6.15,12.36-15.6,12.38C532.09,173.09,527.33,167.31,527.32,161.81Zm21-.41c0-3.53-2.69-5.64-6.42-6.63-3.11.87-4.92,3.12-4.91,6a5.61,5.61,0,0,0,5.79,5.71C546.13,166.51,548.34,164.31,548.34,161.4Zm-10.73-19.22c0,2.75,2.45,4.53,5.75,5.52a5.6,5.6,0,0,0,4.11-5.19c0-2.51-1.46-5-5-5A4.53,4.53,0,0,0,537.61,142.18Z" transform="translate(0 -31.53)"/><rect class="cls-11" x="679.06" y="87.58" width="117.33" height="117.33" rx="22.52" transform="translate(-0.37 -29.65) rotate(-0.15)"/><rect class="cls-3" x="670.71" y="79.61" width="117.33" height="117.33" rx="22.52" transform="translate(-0.35 -29.68) rotate(-0.15)"/><g class="cls-14"><rect class="cls-13" x="657.82" y="72.66" width="140.99" height="51.23" transform="translate(-0.25 -29.68) rotate(-0.15)"/></g><path d="M689.43,95.49a35.14,35.14,0,0,1,5.51-.43c3.54,0,6,.73,7.71,2.17a8.47,8.47,0,0,1,3,7,9.76,9.76,0,0,1-2.93,7.53c-1.89,1.71-4.88,2.59-8.55,2.6a35.08,35.08,0,0,1-4.68-.24Zm3.49,16a12.29,12.29,0,0,0,1.93.09c4.48,0,7.14-2.48,7.13-7.27,0-4.17-2.4-6.57-6.74-6.56a11.36,11.36,0,0,0-2.36.21Z" transform="translate(0 -31.53)"/><path d="M719.2,105.67l-7.13,0,0,5.55,8,0v2.84l-11.42,0,0-18.91,11,0V98l-7.56,0,0,4.86,7.12,0Z" transform="translate(0 -31.53)"/><path d="M736.67,113.46a12.33,12.33,0,0,1-4.91.87c-6,0-9.66-3.75-9.68-9.51,0-6.21,4.32-10,10.1-10a10.56,10.56,0,0,1,4.58.83L736,98.4a9,9,0,0,0-3.69-.73c-3.86,0-6.62,2.43-6.61,7,0,4.17,2.44,6.81,6.6,6.79a10,10,0,0,0,3.77-.69Z" transform="translate(0 -31.53)"/><path d="M743.91,94.78a34.54,34.54,0,0,1-3,7.18l-2.12.22a42.4,42.4,0,0,0,1.8-7.14Z" transform="translate(0 -31.53)"/><path d="M745.81,114v-2.1l2.16-2c4.28-4,6.3-6.17,6.31-8.58,0-1.65-.88-3.07-3.26-3.06a6.47,6.47,0,0,0-3.89,1.53l-1-2.45a9.13,9.13,0,0,1,5.59-1.89c4,0,6,2.53,6,5.51,0,3.21-2.29,5.79-5.47,8.75l-1.58,1.38v.06l7.48,0V114Z" transform="translate(0 -31.53)"/><path d="M761.52,110.39a9.36,9.36,0,0,0,4.16,1.11c2.63,0,3.7-1.5,3.68-2.93,0-2.15-2.05-3.08-4.15-3.08h-1.58V103h1.53c1.6,0,3.61-.73,3.6-2.55,0-1.25-.91-2.28-2.92-2.28a7.41,7.41,0,0,0-3.73,1.16l-.78-2.5a10.09,10.09,0,0,1,5.24-1.41c3.77,0,5.7,2.07,5.7,4.46,0,1.9-1.11,3.46-3.33,4.26v.06a4.62,4.62,0,0,1,4,4.54c0,3.08-2.58,5.53-7.09,5.54a9.88,9.88,0,0,1-5.1-1.25Z" transform="translate(0 -31.53)"/><path d="M707.73,143.57h-.12l-7.72,3.68-1.59-7.12,10.76-5,7.84,0L717,175.7l-9.19,0Z" transform="translate(0 -31.53)"/><path d="M759.42,135l0,6-16.66,34.69-10.08,0L749.36,143v-.13l-18.63.05,0-7.83Z" transform="translate(0 -31.53)"/><path class="cls-15" d="M1094.6,170.12c-7.09,3-12.47,8.51-13.92,15.33-31-.19-62.43-4.54-93.16-.25s-60,13.51-88.51,23.58c-4-5.68-11.22-9-18.79-8.7q-6.94-32.46-14-64.89C872.81,130,878,122.6,879,114.72c28.33-10,57.43-19.26,87.85-23.51,30.72-4.29,62.16.05,93.15.25,4.38,6.43,11.74,12.21,20.33,13.86Q1087.48,137.72,1094.6,170.12Z" transform="translate(0 -31.53)"/><path class="cls-15" d="M1056.48,83.17c-30.42-.36-61.25-4.41-91.43-.29C935.23,87,906.6,96.12,878.82,105.82c-9,3.17-17.88,6.49-26.77,9.85q2.67,12.17,5.35,24.35L871,202l5.34,24.27v.08c8.61-3.38,17.26-6.67,26-9.78,0,0,0-.05,0-.08,28-9.82,56.94-18.9,87-23s61-.08,91.43.28a192.6,192.6,0,0,0,28.43-1.86q-2.68-12.17-5.35-24.35-6.81-30.95-13.61-61.89-2.67-12.16-5.35-24.35A193.79,193.79,0,0,1,1056.48,83.17Zm38.12,87c-7.09,3-12.47,8.51-13.92,15.33-31-.19-62.43-4.54-93.16-.25s-60,13.51-88.51,23.58c-4-5.68-11.22-9-18.79-8.7q-6.94-32.46-14-64.89C872.81,130,878,122.6,879,114.72c28.33-10,57.43-19.26,87.85-23.51,30.72-4.29,62.16.05,93.15.25,4.38,6.43,11.74,12.21,20.33,13.86Q1087.48,137.72,1094.6,170.12Z" transform="translate(0 -31.53)"/><path class="cls-16" d="M1099,159.06c-7.08,3-12.46,8.51-13.91,15.34-31-.2-62.44-4.55-93.17-.26s-60,13.52-88.5,23.58c-4-5.67-11.23-9-18.8-8.69q-6.95-32.46-14-64.9c6.62-5.2,11.78-12.58,12.84-20.47,28.34-10,57.43-19.26,87.85-23.51,30.72-4.29,62.16.06,93.15.26,4.38,6.43,11.75,12.2,20.33,13.85Q1091.92,126.66,1099,159.06Z" transform="translate(0 -31.53)"/><path class="cls-17" d="M1060.92,72.11c-30.43-.36-61.26-4.41-91.43-.28C939.66,75.91,911,85.06,883.25,94.76c-9,3.18-17.88,6.5-26.77,9.85q2.68,12.18,5.36,24.35,6.81,31,13.61,62l5.34,24.27,0,.08c8.6-3.37,17.25-6.67,26-9.78,0,0,0-.05,0-.08,28-9.82,57-18.9,87-23s61-.07,91.43.29a193.79,193.79,0,0,0,28.43-1.86q-2.67-12.18-5.35-24.35-6.79-30.94-13.6-61.89-2.68-12.18-5.35-24.35A192.59,192.59,0,0,1,1060.92,72.11Zm38.11,87c-7.08,3-12.46,8.51-13.91,15.34-31-.2-62.44-4.55-93.17-.26s-60,13.52-88.5,23.58c-4-5.67-11.23-9-18.8-8.69q-6.95-32.46-14-64.9c6.62-5.2,11.78-12.58,12.84-20.47,28.34-10,57.43-19.26,87.85-23.51,30.72-4.29,62.16.06,93.15.26,4.38,6.43,11.75,12.2,20.33,13.85Q1091.92,126.66,1099,159.06Z" transform="translate(0 -31.53)"/><text class="cls-18" transform="translate(914.77 135.97) rotate(-26.37) scale(1.15 1)"> </text><text class="cls-18" transform="translate(922.21 132.28) rotate(-24.65) scale(1.15 1)"> </text><text class="cls-18" transform="matrix(1.06, -0.45, 0.39, 0.92, 929.73, 128.83)"> </text><text class="cls-18" transform="matrix(1.07, -0.42, 0.36, 0.93, 937.38, 125.59)"> </text><text class="cls-18" transform="translate(945.08 122.58) rotate(-19.62) scale(1.15 1)"> </text><text class="cls-18" transform="translate(952.73 119.69) rotate(-16.8) scale(1.15 1)">3</text><text class="cls-18" transform="matrix(1.12, -0.26, 0.22, 0.97, 971.96, 113.88)">0</text><text class="cls-18" transform="matrix(1.14, -0.18, 0.16, 0.99, 991.56, 109.4)">0</text><text class="cls-18" transform="translate(1011.38 106.25) rotate(-5.12) scale(1.15 1)">0</text><text class="cls-18" transform="matrix(1.15, -0.04, 0.03, 1, 1031.45, 104.54)">/</text><text class="cls-18" transform="translate(1044.89 104.1) rotate(0.47) scale(1.15 1)">-</text><g id="layer1"><path id="path4158" class="cls-17" d="M936.56,157l-16.08-10.6-.76-2.61c5.68-.84,9.85-2.27,9.37-7.13l-11.9,2.44,1-3.24,9.51-1.88c-2.29-2.34-6.36-1.83-12.49-.33l1.24-3.22,20.1-4.27-1.11,3.16-5.56,1.18a5.81,5.81,0,0,1,2.74,2.58l5.74-1.28L937.25,135l-3.82.87c.7,4.18-2.75,7.47-7.91,9.14l16.27,10.94L936.56,157Z" transform="translate(0 -31.53)"/></g><text class="cls-19" transform="translate(917.6 133.66) rotate(-26.37) scale(1.15 1)"> </text><text class="cls-19" transform="matrix(1.05, -0.48, 0.42, 0.91, 925.02, 129.98)"> </text><text class="cls-19" transform="translate(932.56 126.51) rotate(-22.96) scale(1.15 1)"> </text><text class="cls-19" transform="translate(940.2 123.27) rotate(-21.28) scale(1.15 1)"> </text><text class="cls-19" transform="matrix(1.09, -0.39, 0.34, 0.94, 947.91, 120.27)"> </text><text class="cls-19" transform="translate(955.56 117.38) rotate(-16.8) scale(1.15 1)">3</text><text class="cls-19" transform="matrix(1.12, -0.26, 0.22, 0.97, 974.79, 111.56)">0</text><text class="cls-19" transform="translate(994.39 107.08) rotate(-9) scale(1.15 1)">0</text><text class="cls-19" transform="translate(1014.2 103.94) rotate(-5.12) scale(1.15 1)">0</text><text class="cls-19" transform="matrix(1.15, -0.04, 0.03, 1, 1034.28, 102.23)">/</text><text class="cls-19" transform="translate(1047.72 101.78) rotate(0.47) scale(1.15 1)">-</text><g id="layer1-2" data-name="layer1"><path id="path4158-2" data-name="path4158" class="cls-20" d="M939.39,154.69,923.31,144.1l-.76-2.61c5.68-.84,9.85-2.27,9.36-7.13L920,136.8l1-3.24,9.51-1.88c-2.29-2.34-6.37-1.83-12.49-.33l1.24-3.23,20.1-4.26L938.28,127l-5.56,1.17a5.78,5.78,0,0,1,2.73,2.58l5.75-1.27-1.12,3.13-3.82.87c.7,4.18-2.76,7.47-7.92,9.15l16.28,10.94-5.23,1.1Z" transform="translate(0 -31.53)"/></g><path class="cls-21" d="M867.76,67.54a11.59,11.59,0,0,1,3.93-.7,5.21,5.21,0,0,1,2.93.88,4.77,4.77,0,0,1,1.75,2.46,4.67,4.67,0,0,1,.22,2.37,4.83,4.83,0,0,1-1,2.09,8.26,8.26,0,0,1-1.93,1.76l-.87.8-6,2L866,76.91l4.48-1.52a5,5,0,0,0,1.83-1,2.76,2.76,0,0,0,.84-1.36,2.68,2.68,0,0,0-.09-1.53,2.73,2.73,0,0,0-1.53-1.74,4.22,4.22,0,0,0-2.94.15l-3.39,1.16L870,85.23l-3.38,1.15L861,69.84Zm2.7,9.25L874,75.58l7,5.74,0,.15-3.61,1.23Z" transform="translate(0 -31.53)"/><path class="cls-21" d="M889.18,79.27a8.33,8.33,0,0,1-3.93.32,6.12,6.12,0,0,1-3-1.44,5.87,5.87,0,0,1-1.76-2.79l-.15-.47a6.8,6.8,0,0,1-.17-3.64,6.15,6.15,0,0,1,1.64-2.94,7.38,7.38,0,0,1,3.11-1.8,7.15,7.15,0,0,1,3.66-.27,5.26,5.26,0,0,1,2.69,1.53,7.49,7.49,0,0,1,1.64,3l.37,1.23-11.08,3.36-.62-2.06,7.83-2.37-.06-.22a3.76,3.76,0,0,0-.73-1.26,2.42,2.42,0,0,0-1.23-.74,3.32,3.32,0,0,0-1.79.12,3.09,3.09,0,0,0-1.61,1,3.36,3.36,0,0,0-.65,1.77,5.91,5.91,0,0,0,.29,2.28l.14.47a4.16,4.16,0,0,0,1,1.76,3.41,3.41,0,0,0,1.72.93,4.3,4.3,0,0,0,2.2-.13,5.17,5.17,0,0,0,1.92-1,4.61,4.61,0,0,0,1.21-1.59l2.17,1a6.29,6.29,0,0,1-1.55,2.22A7.77,7.77,0,0,1,889.18,79.27Z" transform="translate(0 -31.53)"/><path class="cls-21" d="M894.87,70.43a8,8,0,0,1-.2-3.53,5.5,5.5,0,0,1,1.4-2.78A6,6,0,0,1,899,62.48a6.16,6.16,0,0,1,2.54-.2,4.39,4.39,0,0,1,2,.82,6.76,6.76,0,0,1,1.58,1.69,14.59,14.59,0,0,1,1.24,2.37l.18.67a11,11,0,0,1,0,3.4,5.13,5.13,0,0,1-4,4.25,5.56,5.56,0,0,1-5.9-1.73,7.45,7.45,0,0,1-1.58-3.08Zm3.38-.65a5.82,5.82,0,0,0,.89,1.93,3.21,3.21,0,0,0,1.46,1.16,3.18,3.18,0,0,0,2,0,3.79,3.79,0,0,0,1.72-.9,3,3,0,0,0,.8-1.41,5.19,5.19,0,0,0,.11-1.73l-.52-2a5.3,5.3,0,0,0-.66-1.2,3,3,0,0,0-2.15-1.24,4.23,4.23,0,0,0-1.5.14A3.08,3.08,0,0,0,898,67.4a5.9,5.9,0,0,0,.19,2.14Zm7.79-9L909.31,73a5,5,0,0,1-.07,3.1,5.38,5.38,0,0,1-1.84,2.43,9.47,9.47,0,0,1-3.29,1.54,9.89,9.89,0,0,1-1.89.29,8.59,8.59,0,0,1-2.14-.13,5,5,0,0,1-1.9-.75l1.08-2.16a5.37,5.37,0,0,0,2,.7,5.53,5.53,0,0,0,2.06-.15,4,4,0,0,0,2.34-1.46,2.82,2.82,0,0,0,.33-2.47l-2.52-9.37L903,61.63Z" transform="translate(0 -31.53)"/><path class="cls-21" d="M908.5,56.74a1.43,1.43,0,0,1,.23-1.22,2.48,2.48,0,0,1,2.78-.68,1.41,1.41,0,0,1,.78,1,1.39,1.39,0,0,1-.24,1.21,2.5,2.5,0,0,1-2.79.68A1.44,1.44,0,0,1,908.5,56.74Zm7.43,15-3.33.81L909.52,60l3.34-.82Z" transform="translate(0 -31.53)"/><path class="cls-21" d="M926.38,65.77a1.3,1.3,0,0,0-.39-.68,2.17,2.17,0,0,0-1-.4,9.9,9.9,0,0,0-2.1-.08,15.56,15.56,0,0,1-2.9-.14,4.89,4.89,0,0,1-2.1-.8A2.7,2.7,0,0,1,916.78,62,3.17,3.17,0,0,1,917,60a4.88,4.88,0,0,1,1.65-1.83,7.93,7.93,0,0,1,2.9-1.21,8.67,8.67,0,0,1,3.28-.16,4.89,4.89,0,0,1,2.35,1,3.25,3.25,0,0,1,1.16,1.9l-3.35.74a1.77,1.77,0,0,0-.93-1.18,2.91,2.91,0,0,0-2.05-.14,3.53,3.53,0,0,0-1.28.52,1.81,1.81,0,0,0-.67.75,1.32,1.32,0,0,0-.09.83,1.06,1.06,0,0,0,.42.65,2.13,2.13,0,0,0,1,.34,12,12,0,0,0,1.9.05,16.34,16.34,0,0,1,3.07.13,4.61,4.61,0,0,1,2.13.8,2.89,2.89,0,0,1,1.08,1.77,3,3,0,0,1-.29,2.14,5.1,5.1,0,0,1-1.77,1.82,9.22,9.22,0,0,1-3,1.18,8.41,8.41,0,0,1-3.53.13,5.26,5.26,0,0,1-2.44-1.12,3.45,3.45,0,0,1-1.15-1.85l3.23-.72a1.9,1.9,0,0,0,.76,1.1,2.59,2.59,0,0,0,1.25.42,5,5,0,0,0,1.44-.11,4.61,4.61,0,0,0,1.4-.52,2.14,2.14,0,0,0,.76-.73A1.21,1.21,0,0,0,926.38,65.77Z" transform="translate(0 -31.53)"/><path class="cls-21" d="M938,56l-8.33,1.63-.43-2.15,8.34-1.63Zm-3.64-4.76,2.4,12.26a1.68,1.68,0,0,0,.37.85.9.9,0,0,0,.62.3,2.66,2.66,0,0,0,.83,0,6.17,6.17,0,0,0,.65-.16l.49-.17.44,2.25a8.38,8.38,0,0,1-2.15.71,5.38,5.38,0,0,1-2.07,0,2.87,2.87,0,0,1-1.59-.88,4,4,0,0,1-.91-2L931,51.94Z" transform="translate(0 -31.53)"/><path class="cls-21" d="M945.47,65.65l-3.38.59-2.24-12.78,3.21-.56.61,2.47Zm2.67-10.87c-.21,0-.44,0-.67,0s-.47.06-.69.1a4.37,4.37,0,0,0-1.8.67,2.53,2.53,0,0,0-1,1.19,3.61,3.61,0,0,0-.19,1.6l-.77.15a8.19,8.19,0,0,1,0-3,4.73,4.73,0,0,1,1.11-2.3,4,4,0,0,1,2.32-1.19,5.78,5.78,0,0,1,.65-.06,3.06,3.06,0,0,1,.55,0Z" transform="translate(0 -31.53)"/><path class="cls-21" d="M958.72,54.65a2.09,2.09,0,0,0-.88-1.5,2.76,2.76,0,0,0-2-.3,3.69,3.69,0,0,0-1.3.43,2.1,2.1,0,0,0-.8.76,1.38,1.38,0,0,0-.18.93l-3.39.51a3,3,0,0,1,.46-2,5.25,5.25,0,0,1,1.91-1.78,9.58,9.58,0,0,1,6.2-1A4.57,4.57,0,0,1,961,51.81a4,4,0,0,1,1.12,2.36l.84,5.65a7.5,7.5,0,0,0,.39,1.57,4.8,4.8,0,0,0,.6,1.13l0,.21-3.47.52A4.58,4.58,0,0,1,960,62.1a8.54,8.54,0,0,1-.35-1.41Zm.92,2.59-2.33.35a5.17,5.17,0,0,0-2.63,1,1.8,1.8,0,0,0-.68,1.69,1.61,1.61,0,0,0,.8,1.18,2.62,2.62,0,0,0,1.77.25,4.09,4.09,0,0,0,1.69-.61,3.43,3.43,0,0,0,1-1,1.66,1.66,0,0,0,.29-1l1.28,1.16a4,4,0,0,1-.4,1.12,4.67,4.67,0,0,1-.87,1.2,5.52,5.52,0,0,1-1.38,1,6.08,6.08,0,0,1-2,.62,6.49,6.49,0,0,1-2.66-.12,4.26,4.26,0,0,1-2-1.1,3.27,3.27,0,0,1-1-1.87,3.51,3.51,0,0,1,1.3-3.39,9.66,9.66,0,0,1,4.84-1.84l2.55-.38Z" transform="translate(0 -31.53)"/><path class="cls-21" d="M972.1,50.86l-8.42,1-.28-2.18,8.43-1Zm-3.29-5,1.54,12.4a1.77,1.77,0,0,0,.3.88,1,1,0,0,0,.6.34,3,3,0,0,0,.84,0,5.86,5.86,0,0,0,.65-.11l.5-.14.28,2.27a6.25,6.25,0,0,1-.93.32,7.25,7.25,0,0,1-1.25.25,5.6,5.6,0,0,1-2.07-.11,2.83,2.83,0,0,1-1.54-1A4,4,0,0,1,967,58.9L965.4,46.28Z" transform="translate(0 -31.53)"/><path class="cls-21" d="M973.66,45.07a1.44,1.44,0,0,1,.39-1.18,2.11,2.11,0,0,1,1.37-.6,2.15,2.15,0,0,1,1.47.29,1.44,1.44,0,0,1,.65,1.07,1.42,1.42,0,0,1-.41,1.18,2.16,2.16,0,0,1-1.38.6,2.11,2.11,0,0,1-1.46-.3A1.43,1.43,0,0,1,973.66,45.07ZM979.05,61l-3.42.37-1.39-12.91,3.42-.36Z" transform="translate(0 -31.53)"/><path class="cls-21" d="M981.07,54.06a6.88,6.88,0,0,1,.55-3.44,6,6,0,0,1,2.18-2.55,8.55,8.55,0,0,1,7.49-.63,6,6,0,0,1,2.57,2.15,6.9,6.9,0,0,1,1.11,3.3l0,.25a6.84,6.84,0,0,1-.54,3.43,5.87,5.87,0,0,1-2.17,2.55,7.59,7.59,0,0,1-3.67,1.18,7.78,7.78,0,0,1-3.82-.54,6,6,0,0,1-2.58-2.15,6.84,6.84,0,0,1-1.12-3.3Zm3.44,0a5.85,5.85,0,0,0,.55,2.06,3.42,3.42,0,0,0,1.28,1.43,3.32,3.32,0,0,0,2.07.4,3.36,3.36,0,0,0,2-.74,3.42,3.42,0,0,0,1-1.62,5.74,5.74,0,0,0,.19-2.13l0-.25a5.9,5.9,0,0,0-.54-2.06,3.17,3.17,0,0,0-3.36-1.85,3.25,3.25,0,0,0-1.95.75,3.34,3.34,0,0,0-1,1.63,5.92,5.92,0,0,0-.19,2.12Z" transform="translate(0 -31.53)"/><path class="cls-21" d="M1001.42,59.14l-3.43.18-.67-13,3.22-.17.35,2.76Zm-2.08-6.85a7.07,7.07,0,0,1,.59-3.32,5.41,5.41,0,0,1,2-2.3,6,6,0,0,1,3.08-1,6.17,6.17,0,0,1,2.54.34,3.49,3.49,0,0,1,1.73,1.45,5.83,5.83,0,0,1,.75,2.81l.43,8.35-3.44.18-.44-8.37a2.85,2.85,0,0,0-.37-1.41,1.59,1.59,0,0,0-.92-.7,4,4,0,0,0-1.44-.15,3.68,3.68,0,0,0-1.5.37,3.16,3.16,0,0,0-1.07.88,3.6,3.6,0,0,0-.65,1.26,4.61,4.61,0,0,0-.16,1.5Z" transform="translate(0 -31.53)"/><path class="cls-21" d="M1024.54,58.36l-3.57,0-.1-17.46,3.57,0Zm9.21-15-10.18.06,0-2.5,10.19-.06Zm-1.12,7.6-9,.05V48.5l9,0Z" transform="translate(0 -31.53)"/><path class="cls-21" d="M1042.22,58.74a8.14,8.14,0,0,1-3.82-.93A6.09,6.09,0,0,1,1036,55.5a6,6,0,0,1-.8-3.21V51.8a6.87,6.87,0,0,1,1-3.51,6.1,6.1,0,0,1,2.48-2.27,7.24,7.24,0,0,1,3.51-.74,7.08,7.08,0,0,1,3.57.9,5.15,5.15,0,0,1,2.07,2.29,7.4,7.4,0,0,1,.63,3.33l0,1.29-11.57-.29,0-2.14,8.19.2v-.23a3.57,3.57,0,0,0-.29-1.42,2.47,2.47,0,0,0-.94-1.09,3.23,3.23,0,0,0-1.74-.46,3.14,3.14,0,0,0-1.85.49,3.31,3.31,0,0,0-1.17,1.47,6,6,0,0,0-.44,2.27l0,.49a4.33,4.33,0,0,0,.42,2,3.51,3.51,0,0,0,1.34,1.42,4.31,4.31,0,0,0,2.13.56,5.25,5.25,0,0,0,2.15-.36,4.51,4.51,0,0,0,1.64-1.13l1.76,1.6a6.37,6.37,0,0,1-2.17,1.62A7.63,7.63,0,0,1,1042.22,58.74Z" transform="translate(0 -31.53)"/><path class="cls-21" d="M1057.24,59.36a8.3,8.3,0,0,1-3.79-1,6.18,6.18,0,0,1-2.37-2.39,6,6,0,0,1-.69-3.23l0-.49a6.75,6.75,0,0,1,1.08-3.48,6,6,0,0,1,2.55-2.19,8.11,8.11,0,0,1,7.07.37,5.15,5.15,0,0,1,2,2.36,7.37,7.37,0,0,1,.52,3.35l-.07,1.28L1052,53.26l.12-2.14,8.17.45,0-.23a3.63,3.63,0,0,0-.26-1.43,2.37,2.37,0,0,0-.9-1.12,3.31,3.31,0,0,0-1.72-.5,3.08,3.08,0,0,0-1.87.43,3.29,3.29,0,0,0-1.21,1.43,6,6,0,0,0-.52,2.25l0,.49a4,4,0,0,0,.36,2,3.43,3.43,0,0,0,1.29,1.46,4.23,4.23,0,0,0,2.11.63,5.35,5.35,0,0,0,2.16-.29,4.71,4.71,0,0,0,1.67-1.08l1.71,1.65a6.36,6.36,0,0,1-2.21,1.56A7.74,7.74,0,0,1,1057.24,59.36Z" transform="translate(0 -31.53)"/><path class="cls-22" d="M1292.36,171.2l-1.53,6.11c-2.1,8.3-11.13,13.17-20.18,10.89L1222.19,176l.13-.09c3.27-2,12.7-7.23,15.65-17.16.68-2.31,3.2-12.22-3.59-18.61-7.14-6.73-20.56-5.74-25.61-.44-3.86,4.06-1.23,9.33-5.61,11.82-3.22,1.83-8.4,1.18-11.51-1.21-4.25-3.25-1.92-7.6-5.79-10.81a11.51,11.51,0,0,0-5.58-2.32L1196,74.76c2.09-8.3,11.13-13.17,20.18-10.89l47.32,11.92c-8.38,6.42-18,11.48-30.33,11.88-4,.13-15.17,0-23.28,6.91-1.89,1.59-9.61,8.68-7.2,17.26,2.54,9,14.9,14.61,22.27,12.58,5.65-1.55,6.27-7.22,11.5-7.22a11.12,11.12,0,0,1,9.44,6.5c1.94,4.73-2.53,7.28-.91,11.81s8.71,8.6,14.44,8c6.85-.77,8.07-7.73,14.78-7.54,2.38.07,5.65,1,7.47,3.35,3.71,4.71-2.36,10.39-.76,18.26C1282.27,164.13,1288.42,169.47,1292.36,171.2Z" transform="translate(0 -31.53)"/><path class="cls-23" d="M1309.46,103.35l-17.1,67.85c-3.94-1.73-10.09-7.07-11.43-13.66-1.6-7.87,4.47-13.55.76-18.26-1.82-2.3-5.09-3.28-7.47-3.35-6.71-.19-7.93,6.77-14.78,7.54-5.73.64-12.79-3.3-14.44-8s2.85-7.08.91-11.81a11.12,11.12,0,0,0-9.44-6.5c-5.23,0-5.85,5.67-11.5,7.22-7.37,2-19.73-3.54-22.27-12.58-2.41-8.58,5.31-15.67,7.2-17.26,8.11-6.91,19.28-6.78,23.28-6.91,12.33-.4,22-5.46,30.33-11.88l33.35,8.41C1305.91,86.48,1311.55,95.06,1309.46,103.35Z" transform="translate(0 -31.53)"/><path class="cls-23" d="M1237.77,159.54c-3,9.93-12.38,15.15-15.66,17.17a.94.94,0,0,0-.12.09l-32.22-8.12c-9-2.28-14.69-10.85-12.6-19.16l2.91-11.54a11.6,11.6,0,0,1,5.58,2.31c3.87,3.22,1.54,7.57,5.79,10.82,3.11,2.38,8.29,3,11.5,1.21,4.39-2.49,1.76-7.77,5.62-11.83,5-5.3,18.47-6.29,25.61.45C1241,147.33,1238.44,157.23,1237.77,159.54Z" transform="translate(0 -31.53)"/><rect class="cls-24" x="1402.21" y="66.61" width="154.23" height="151.89" rx="7.71" transform="translate(47.94 -288.81) rotate(10.1)"/><rect class="cls-6" x="1484.87" y="82" width="68.36" height="67.32" rx="14.76" transform="matrix(0.98, 0.18, -0.18, 0.98, 43.84, -296.19)"/><rect class="cls-6" x="1405.43" y="137.01" width="68.36" height="67.32" rx="14.76" transform="translate(52.26 -281.4) rotate(10.1)"/><ellipse class="cls-22" cx="1451.4" cy="104.5" rx="24.44" ry="24.82" transform="translate(1093.93 1483.54) rotate(-79.9)"/><ellipse class="cls-22" cx="1507.21" cy="182.09" rx="24.44" ry="24.82" transform="translate(1063.56 1602.46) rotate(-79.9)"/><path class="cls-2" d="M1644.3,105.24l20.56,70.29a9.49,9.49,0,0,1-6.46,11.77l-62.58,18.31a9.48,9.48,0,0,1-11.24-13.16l42-88.6A9.51,9.51,0,0,1,1644.3,105.24Z" transform="translate(0 -31.53)"/><circle class="cls-8" cx="1644.24" cy="19.44" r="19.44"/><circle class="cls-8" cx="1364.24" cy="84.44" r="19.44"/></g></g></svg>