<svg xmlns="http://www.w3.org/2000/svg" viewBox="0 0 149.72 128.65"><defs><style>.cls-1{fill:none;stroke:#be7cce;stroke-miterlimit:10;stroke-width:3px;}.cls-2{fill:#b2ddc8;}.cls-3{fill:#fbd7d1;}</style></defs><title>Asset 7</title><g id="Layer_2" data-name="Layer 2"><g id="Layer_1-2" data-name="Layer 1"><line class="cls-1" x1="68.85" y1="67.72" x2="139.73" y2="41.95"/><line class="cls-1" x1="71.86" y1="75.98" x2="142.73" y2="50.21"/><line class="cls-1" x1="74.99" y1="84.19" x2="145.86" y2="58.42"/><line class="cls-1" x1="78" y1="92.44" x2="148.87" y2="66.67"/><line class="cls-1" x1="54.16" y1="27.18" x2="125.03" y2="1.41"/><line class="cls-1" x1="57.17" y1="35.43" x2="128.04" y2="9.66"/><line class="cls-1" x1="60.29" y1="43.65" x2="131.16" y2="17.88"/><line class="cls-1" x1="63.3" y1="51.9" x2="134.17" y2="26.13"/><line class="cls-1" x1="66.21" y1="60.08" x2="137.08" y2="34.31"/><line class="cls-1" x1="122.11" y1="77.08" x2="97.92" y2="10.85"/><line class="cls-1" x1="130.86" y1="73.89" x2="106.67" y2="7.66"/><line class="cls-1" x1="139.57" y1="70.59" x2="115.38" y2="4.36"/><line class="cls-1" x1="148.31" y1="67.41" x2="124.13" y2="1.18"/><line class="cls-1" x1="79.15" y1="92.67" x2="54.96" y2="26.44"/><line class="cls-1" x1="87.89" y1="89.48" x2="63.71" y2="23.25"/><line class="cls-1" x1="96.6" y1="86.18" x2="72.41" y2="19.95"/><line class="cls-1" x1="105.35" y1="82.99" x2="81.16" y2="16.76"/><line class="cls-1" x1="114.01" y1="79.9" x2="89.83" y2="13.67"/><path class="cls-2" d="M11.89,90.33l43.74-17c3.12-1.22,6.74.57,8.07,4l16.57,42.56c2.09,5.35-2.58,10.44-7.62,8.31l-60.3-25.53C7,100.35,6.68,92.35,11.89,90.33Z"/><path class="cls-3" d="M36.88,8.4,55.53,56.29a6.66,6.66,0,0,1-3.8,8.62L9.09,81.51A6.65,6.65,0,0,1,.43,73l24-64.49A6.67,6.67,0,0,1,36.88,8.4Z"/></g></g></svg>