<svg xmlns="http://www.w3.org/2000/svg" viewBox="0 0 529.34 787.32"><defs><style>.cls-1{fill:#f15523;}.cls-2{fill:#fff;}.cls-3{fill:#77c5e8;}.cls-4{fill:#ffe4b3;}.cls-5{fill:#fba922;}.cls-6{fill:#a95bbc;}.cls-7{fill:#f58120;}.cls-8{fill:none;stroke:#39b54a;stroke-miterlimit:10;stroke-width:3px;}.cls-9{fill:#f4ca19;}.cls-10{fill:#c381d3;}.cls-11{fill:#22b573;}</style></defs><title>Asset 5</title><g id="Layer_2" data-name="Layer 2"><g id="Layer_1-2" data-name="Layer 1"><rect class="cls-1" x="136" y="565.55" width="123.69" height="121.5" rx="14.76" transform="translate(177.06 -30.18) rotate(15.72)"/><ellipse class="cls-2" cx="198.24" cy="626.44" rx="15.41" ry="15.68" transform="translate(-458.5 647.03) rotate(-74.23)"/><rect class="cls-3" x="33.17" y="598.18" width="123.69" height="121.5" rx="14.76" transform="translate(182.06 -1.1) rotate(15.72)"/><ellipse class="cls-2" cx="72.19" cy="620.55" rx="15.41" ry="15.68" transform="translate(-544.63 521.42) rotate(-74.23)"/><ellipse class="cls-2" cx="95.02" cy="658.93" rx="15.41" ry="15.68" transform="translate(-564.94 571.34) rotate(-74.23)"/><ellipse class="cls-2" cx="117.55" cy="695.68" rx="15.41" ry="15.68" transform="matrix(0.27, -0.96, 0.96, 0.27, -583.9, 619.79)"/><ellipse class="cls-4" cx="185.72" cy="131.71" rx="55.73" ry="55.12"/><ellipse class="cls-5" cx="185.72" cy="131.71" rx="45.04" ry="44.55"/><path class="cls-6" d="M421.94,115.65,274,152.39c-7.63,1.9-14.73-3.43-14.28-10.63,1.91-30.78,28.48-60.1,65-71.52C366,57.37,411.16,70,429.6,99.59,433.42,105.71,429.56,113.76,421.94,115.65Z"/><path class="cls-1" d="M485.86,88.62,336.23,45.24c-6.58-1.91-9.81-8.71-6.58-13.8C345.87,5.91,384.08-5.88,422.17,2.86,465,12.68,498.46,46.35,498.8,80.49,498.86,86.52,492.44,90.53,485.86,88.62Z"/><path class="cls-7" d="M528.12,512.91l1,5.83c1.39,7.93-4.5,15.56-13.14,17.07l-46.27,8.08.08-.12c2-3,8.13-11.07,6.86-20.73-.31-2.24-1.94-11.71-10.21-14.59-8.7-3.05-19.85,2.95-22.15,9.43-1.75,5,2.52,8.48-.28,12.3-2.06,2.8-6.76,4.22-10.34,3.36-4.89-1.16-4.56-5.78-9.11-7.06a10.81,10.81,0,0,0-5.68.15l-10.4-59.58c-1.38-7.92,4.5-15.57,13.14-17.08l45.18-7.89c-4.73,8.72-11.06,16.74-21.48,21.81-3.38,1.64-13,5.81-17.33,14.84-1,2.09-4.92,11.14.43,17.57,5.64,6.79,18.38,6.84,23.93,2.27,4.25-3.49,2.62-8.6,7.11-10.6a10.44,10.44,0,0,1,10.59,2c3.47,3.31.61,7.21,3.74,10.48s10.77,4.05,15.43,1.3c5.59-3.29,4-9.73,9.8-12.13,2.07-.85,5.26-1.27,7.7,0,5,2.62,1.95,9.82,6.34,16C516.75,510.71,524.07,512.93,528.12,512.91Z"/><path class="cls-3" d="M516.81,448.13l11.31,64.78c-4,0-11.37-2.2-15-7.34-4.39-6.15-1.35-13.35-6.34-16-2.44-1.28-5.63-.86-7.7,0-5.82,2.4-4.21,8.84-9.8,12.13-4.66,2.75-12.23,2.07-15.43-1.3s-.27-7.17-3.74-10.48a10.44,10.44,0,0,0-10.59-2c-4.49,2-2.86,7.11-7.11,10.6-5.55,4.57-18.29,4.52-23.93-2.27-5.35-6.43-1.44-15.48-.43-17.57,4.31-9,13.95-13.2,17.33-14.84,10.42-5.07,16.75-13.09,21.48-21.81l31.84-5.56C507.3,435,515.43,440.21,516.81,448.13Z"/><path class="cls-3" d="M476.8,523.81c1.27,9.66-4.82,17.74-6.85,20.73l-.08.12L439.12,550c-8.64,1.51-16.77-3.68-18.16-11.61l-1.92-11a11,11,0,0,1,5.67-.15c4.55,1.28,4.23,5.9,9.11,7.06,3.58.86,8.28-.56,10.34-3.36,2.81-3.82-1.47-7.34.29-12.3,2.3-6.48,13.44-12.48,22.15-9.43C474.87,512.1,476.5,521.57,476.8,523.81Z"/><line class="cls-8" x1="383.21" y1="623.64" x2="493.6" y2="638.16"/><line class="cls-8" x1="381.53" y1="636.5" x2="491.92" y2="651.02"/><line class="cls-8" x1="380.03" y1="649.39" x2="490.42" y2="663.91"/><line class="cls-8" x1="378.35" y1="662.25" x2="488.74" y2="676.77"/><line class="cls-8" x1="391.59" y1="560.52" x2="501.98" y2="575.04"/><line class="cls-8" x1="389.9" y1="573.38" x2="500.29" y2="587.9"/><line class="cls-8" x1="388.4" y1="586.27" x2="498.79" y2="600.79"/><line class="cls-8" x1="386.72" y1="599.13" x2="497.11" y2="613.65"/><line class="cls-8" x1="384.96" y1="611.82" x2="495.35" y2="626.35"/><line class="cls-8" x1="446.6" y1="672.18" x2="460.04" y2="568.95"/><line class="cls-8" x1="460.23" y1="673.96" x2="473.67" y2="570.73"/><line class="cls-8" x1="473.88" y1="675.57" x2="487.32" y2="572.34"/><line class="cls-8" x1="487.51" y1="677.36" x2="500.95" y2="574.12"/><line class="cls-8" x1="379.7" y1="663.32" x2="393.14" y2="560.09"/><line class="cls-8" x1="393.33" y1="665.11" x2="406.77" y2="561.87"/><line class="cls-8" x1="406.99" y1="666.72" x2="420.42" y2="563.48"/><line class="cls-8" x1="420.62" y1="668.5" x2="434.05" y2="565.27"/><line class="cls-8" x1="434.07" y1="670.35" x2="447.51" y2="567.12"/><rect class="cls-9" x="283.32" y="144.82" width="180.46" height="177.71" rx="7.71" transform="translate(-45.31 96.93) rotate(-13.95)"/><rect class="cls-4" x="363.18" y="146.61" width="79.98" height="78.77" rx="14.76" transform="translate(-32.95 102.67) rotate(-13.95)"/><rect class="cls-4" x="304.54" y="243.28" width="79.98" height="78.77" rx="14.76" transform="translate(-57.97 91.38) rotate(-13.95)"/><ellipse class="cls-7" cx="325.57" cy="206.34" rx="29.03" ry="28.59" transform="translate(-40.14 84.56) rotate(-13.95)"/><ellipse class="cls-7" cx="422.2" cy="262.63" rx="29.03" ry="28.59" transform="translate(-50.86 109.51) rotate(-13.95)"/><rect class="cls-1" x="395.43" y="340.17" width="7.61" height="103.4" transform="translate(-61.46 74.52) rotate(-9.91)"/><rect class="cls-1" x="412.53" y="337.18" width="7.61" height="103.4" transform="translate(-60.69 77.42) rotate(-9.91)"/><rect class="cls-1" x="428.58" y="334.38" width="7.61" height="103.4" transform="translate(-59.97 80.14) rotate(-9.91)"/><rect class="cls-1" x="445.83" y="331.36" width="7.61" height="103.4" transform="translate(-59.2 83.06) rotate(-9.91)"/><rect class="cls-1" x="462.44" y="328.46" width="7.61" height="103.4" transform="translate(-58.45 85.88) rotate(-9.91)"/><rect class="cls-1" x="478.46" y="325.67" width="7.61" height="103.4" transform="translate(-57.73 88.59) rotate(-9.91)"/><rect class="cls-1" x="495.55" y="322.68" width="7.61" height="103.4" transform="translate(-56.96 91.49) rotate(-9.91)"/><rect class="cls-1" x="368.87" y="679.69" width="111.11" height="102.45" rx="14.76" transform="translate(102.63 -50.64) rotate(7.76)"/><ellipse class="cls-2" cx="399.12" cy="701.29" rx="12.99" ry="14.09" transform="translate(-349.26 1002.99) rotate(-82.31)"/><ellipse class="cls-2" cx="424.42" cy="730.92" rx="12.99" ry="14.09" transform="translate(-356.71 1053.73) rotate(-82.31)"/><ellipse class="cls-2" cx="449.24" cy="759.21" rx="12.99" ry="14.09" transform="matrix(0.13, -0.99, 0.99, 0.13, -363.24, 1102.84)"/><path class="cls-1" d="M358.4,553.65l-7.14,49.22a6.44,6.44,0,0,1-7.3,5.45L300.14,602a6.44,6.44,0,0,1-3.24-11.3l51-42.87A6.45,6.45,0,0,1,358.4,553.65Z"/><circle class="cls-6" cx="23.01" cy="585.62" r="18.99"/><circle class="cls-10" cx="332.48" cy="732.83" r="19.44"/><path class="cls-7" d="M24.11,455l183.81-34.87a9.45,9.45,0,0,1,11.31,9c.61,44.26-32.43,84.67-78,96.65C90.23,539.22,35,514.05,17,467.76A9.5,9.5,0,0,1,24.11,455Z"/><rect class="cls-11" x="78.54" y="176.05" width="7.61" height="182.2" transform="translate(95.29 -12.1) rotate(19.78)"/><rect class="cls-11" x="94.88" y="181.93" width="7.61" height="182.2" transform="translate(98.24 -17.29) rotate(19.78)"/><rect class="cls-11" x="110.21" y="187.44" width="7.61" height="182.2" transform="matrix(0.94, 0.34, -0.34, 0.94, 101.01, -22.15)"/><rect class="cls-11" x="126.69" y="193.37" width="7.61" height="182.2" transform="translate(103.99 -27.38) rotate(19.78)"/><rect class="cls-11" x="142.56" y="199.08" width="7.61" height="182.2" transform="translate(106.86 -32.41) rotate(19.78)"/><rect class="cls-11" x="157.86" y="204.58" width="7.61" height="182.2" transform="matrix(0.94, 0.34, -0.34, 0.94, 109.63, -37.27)"/><rect class="cls-11" x="174.18" y="210.46" width="7.61" height="182.2" transform="translate(112.58 -42.45) rotate(19.78)"/><rect class="cls-3" x="38.83" y="102.71" width="37.99" height="244.75" rx="5.25" transform="translate(79.6 -6.29) rotate(19.78)"/><circle class="cls-1" cx="109.95" cy="80.2" r="18.99"/><rect class="cls-9" x="8.6" y="412.65" width="208.47" height="16.83" rx="4.48" transform="translate(-76.52 28.42) rotate(-10.74)"/><rect class="cls-9" x="314.84" y="392.31" width="57.19" height="130.47" rx="6.04" transform="translate(69.18 -44.53) rotate(8.25)"/><path class="cls-10" d="M303.83,531.43l-4.93,34a5.1,5.1,0,0,0,8.1,4.82l38.66-28.88a5.1,5.1,0,0,0-2.28-9.13l-33.73-5.14A5.1,5.1,0,0,0,303.83,531.43Z"/></g></g></svg>