<svg xmlns="http://www.w3.org/2000/svg" viewBox="0 0 173.8 110.18"><defs><style>.cls-1{fill:#fdb45c;}.cls-2{fill:none;stroke:#c1272d;stroke-miterlimit:10;}.cls-3{fill:#fbd7d1;}</style></defs><title>Asset 21</title><g id="Layer_2" data-name="Layer 2"><g id="Layer_1-2" data-name="Layer 1"><path class="cls-1" d="M58.6,5.66c3.58-1.21,8.09-2.21,10.75.63s1.56,7.32.33,10.92Q56.46,55.86,43.24,94.52c-.93,2.72-2.28,5.83-5.05,6.37-3.83.74-6.46-3.9-7.8-7.71l-12.31-35c-2.8-8-10.64-21.22-8.59-29.82C12.91,14,47.05,9.61,58.6,5.66Z"/><path class="cls-2" d="M49.94,1.71C53.53.5,58-.5,60.7,2.34s1.56,7.31.33,10.91Q47.8,51.91,34.59,90.56c-.93,2.72-2.29,5.84-5.05,6.37-3.83.74-6.46-3.9-7.8-7.71l-12.31-35C6.63,46.2-1.21,33,.84,24.36,4.25,10,38.4,5.66,49.94,1.71Z"/><path class="cls-3" d="M173.7,72.23c-1.26,6.94-10.89,8.89-55,23.13C76.47,109,67.07,113.1,62,108.18c-3.5-3.4-2.52-8.74,10-47.12,12.74-38.9,15.39-44.59,21.59-46.49,5.53-1.7,10.56.64,39.67,21.67C172.07,64.24,174.43,68.23,173.7,72.23Z"/><path class="cls-2" d="M169.21,62.53c-1.26,6.93-10.89,8.89-55,23.12C72,99.3,62.58,103.4,57.51,98.48,54,95.08,55,89.74,67.56,51.35,80.29,12.46,82.94,6.77,89.14,4.87c5.53-1.7,10.56.64,39.67,21.67C167.58,54.54,169.94,58.53,169.21,62.53Z"/></g></g></svg>