<svg xmlns="http://www.w3.org/2000/svg" viewBox="0 0 878.71 169.04"><defs><style>.cls-1{fill:#f37920;}.cls-2{fill:#fbc097;}.cls-3{fill:#fdb45c;}.cls-4{fill:none;stroke:#c1272d;stroke-miterlimit:10;}.cls-5{fill:#fbd7d1;}.cls-6{fill:#b2ddc8;}.cls-7{fill:#fff;}.cls-8{fill:#ef4f3a;}.cls-9{fill:#00b39b;}.cls-10{fill:#ffe4b3;}.cls-11{fill:#f58120;}.cls-12{fill:#fba922;}.cls-13{fill:#f7a48c;}.cls-14{fill:#c381d3;}</style></defs><title>Asset 8</title><g id="Layer_2" data-name="Layer 2"><g id="Layer_1-2" data-name="Layer 1"><path class="cls-1" d="M88.89,131.08,87,135.7c-2.61,6.29-10.27,9.07-17.12,6.22L33.18,126.7l.11,0c2.81-1.21,10.82-4.22,14.3-11.68.8-1.74,3.93-9.23-.66-15-4.83-6.12-15.5-6.9-20.08-3.32-3.5,2.74-2.05,7.19-5.78,8.64-2.74,1.07-6.74,0-8.91-2.29-3-3-.62-6.19-3.29-9.17a9.28,9.28,0,0,0-4.12-2.47L24.36,44.1C27,37.82,34.63,35,41.48,37.88L77.29,52.75C70,56.82,61.81,59.68,52.08,58.56,48.92,58.2,40.15,56.8,33,61.29c-1.67,1-8.56,5.71-7.66,12.73.94,7.4,10,13.21,16,12.47,4.62-.56,5.77-4.94,9.88-4.34a8.85,8.85,0,0,1,6.67,6.21c1,3.94-2.84,5.42-2.09,9.17s5.85,7.78,10.42,7.93c5.48.19,7.25-5.13,12.49-4.2a8.17,8.17,0,0,1,5.49,3.49c2.37,4.14-3.06,7.9-2.72,14.27C81.77,124.35,86,129.26,88.89,131.08Z"/><path class="cls-2" d="M110.21,79.74,88.89,131.08c-2.9-1.82-7.12-6.73-7.4-12.06-.34-6.37,5.09-10.13,2.72-14.27a8.17,8.17,0,0,0-5.49-3.49c-5.24-.93-7,4.39-12.49,4.2-4.57-.15-9.66-4.07-10.42-7.93s3.06-5.23,2.09-9.17a8.85,8.85,0,0,0-6.67-6.21c-4.11-.6-5.26,3.78-9.88,4.34-6,.74-15.09-5.07-16-12.47-.9-7,6-11.7,7.66-12.73,7.17-4.49,15.94-3.09,19.1-2.73,9.73,1.12,17.88-1.74,25.21-5.81l25.23,10.48C109.37,66.07,112.81,73.47,110.21,79.74Z"/><path class="cls-2" d="M47.33,115.58C43.86,123,35.85,126.05,33,127.26l-.11,0L8.55,117.19C1.71,114.35-1.74,107,.87,100.67L4.5,91.94A9.17,9.17,0,0,1,8.62,94.4c2.66,3,.33,6.13,3.29,9.17,2.17,2.24,6.16,3.36,8.9,2.29,3.74-1.45,2.28-5.9,5.79-8.64,4.58-3.58,15.25-2.8,20.07,3.32C51.27,106.35,48.13,113.85,47.33,115.58Z"/><path class="cls-3" d="M739.53,38.18c3.59-1.21,8.09-2.21,10.75.63s1.56,7.31.33,10.92Q737.4,88.39,724.17,127c-.92,2.72-2.28,5.84-5,6.37-3.83.75-6.47-3.89-7.8-7.7L699,90.66c-2.81-8-10.65-21.22-8.6-29.82C693.84,46.5,728,42.13,739.53,38.18Z"/><path class="cls-4" d="M730.88,34.23c3.58-1.22,8.09-2.22,10.75.63s1.56,7.31.33,10.91l-26.44,77.31c-.93,2.72-2.29,5.83-5,6.37-3.83.74-6.46-3.9-7.8-7.71l-12.31-35c-2.8-8-10.64-21.22-8.59-29.82C685.19,42.55,719.33,38.18,730.88,34.23Z"/><path class="cls-5" d="M854.64,104.75c-1.27,6.93-10.9,8.89-55,23.12C757.4,141.52,748,145.62,742.93,140.7c-3.5-3.4-2.52-8.74,10.05-47.13C765.71,54.68,768.36,49,774.56,47.09c5.53-1.7,10.56.64,39.67,21.67C853,96.76,855.37,100.75,854.64,104.75Z"/><path class="cls-4" d="M850.15,95.05c-1.27,6.93-10.9,8.89-55,23.12-42.27,13.65-51.67,17.75-56.74,12.82-3.5-3.39-2.52-8.73,10-47.12C761.22,45,763.87,39.29,770.07,37.39c5.54-1.7,10.56.64,39.67,21.67C848.51,87.06,850.88,91.05,850.15,95.05Z"/><rect class="cls-6" x="469.62" y="14.49" width="104.57" height="102.72" rx="14.76" transform="translate(37.35 -138.92) rotate(15.72)"/><ellipse class="cls-7" cx="522.24" cy="65.97" rx="13.02" ry="13.26" transform="translate(316.86 550.64) rotate(-74.23)"/><rect class="cls-2" x="382.69" y="42.07" width="104.57" height="102.72" rx="14.76" transform="translate(41.57 -114.34) rotate(15.72)"/><ellipse class="cls-8" cx="415.67" cy="60.98" rx="13.02" ry="13.26" transform="translate(244.05 444.45) rotate(-74.23)"/><ellipse class="cls-8" cx="434.97" cy="93.43" rx="13.02" ry="13.26" transform="translate(226.88 486.66) rotate(-74.23)"/><ellipse class="cls-8" cx="454.02" cy="124.49" rx="13.02" ry="13.26" transform="translate(210.85 527.61) rotate(-74.23)"/><rect class="cls-9" x="120.49" y="9.4" width="152.56" height="150.24" rx="7.71" transform="translate(-10.34 30.04) rotate(-8.51)"/><rect class="cls-10" x="191.71" y="13.48" width="67.62" height="66.59" rx="14.76" transform="matrix(0.99, -0.15, 0.15, 0.99, -4.44, 33.88)"/><rect class="cls-10" x="134.61" y="90.12" width="67.62" height="66.59" rx="14.76" transform="matrix(0.99, -0.15, 0.15, 0.99, -16.41, 26.28)"/><ellipse class="cls-11" cx="158.59" cy="57.67" rx="24.55" ry="24.17" transform="translate(-6.79 24.1) rotate(-8.51)"/><ellipse class="cls-11" cx="235.4" cy="112.78" rx="24.55" ry="24.17" transform="matrix(0.99, -0.15, 0.15, 0.99, -14.1, 36.07)"/><ellipse class="cls-10" cx="635.08" cy="98.32" rx="47.11" ry="46.6"/><ellipse class="cls-12" cx="635.08" cy="98.32" rx="38.08" ry="37.66"/><rect class="cls-13" x="311.69" y="-0.19" width="6.44" height="62.89" transform="translate(301.2 -284.9) rotate(81.85)"/><rect class="cls-13" x="313.77" y="14.34" width="6.44" height="62.89" transform="translate(317.37 -274.49) rotate(81.85)"/><rect class="cls-13" x="315.72" y="27.97" width="6.44" height="62.89" transform="translate(332.54 -264.72) rotate(81.85)"/><rect class="cls-13" x="317.82" y="42.63" width="6.44" height="62.89" transform="matrix(0.14, 0.99, -0.99, 0.14, 348.85, -254.22)"/><rect class="cls-13" x="319.84" y="56.74" width="6.44" height="62.89" transform="translate(364.55 -244.11) rotate(81.85)"/><rect class="cls-13" x="321.79" y="70.35" width="6.44" height="62.89" transform="matrix(0.14, 0.99, -0.99, 0.14, 379.69, -234.36)"/><rect class="cls-13" x="323.87" y="84.87" width="6.44" height="62.89" transform="translate(395.85 -223.96) rotate(81.85)"/><circle class="cls-5" cx="377.03" cy="18.95" r="16.43"/><circle class="cls-14" cx="862.28" cy="135.61" r="16.43"/></g></g></svg>