<svg xmlns="http://www.w3.org/2000/svg" viewBox="0 0 1723.77 211.19"><defs><style>.cls-1{fill:#b2ddc8;}.cls-2{fill:#f37920;}.cls-3{fill:#fbc097;}.cls-4{fill:#fdb45c;}.cls-5,.cls-7{fill:none;stroke-miterlimit:10;}.cls-5{stroke:#c1272d;}.cls-6{fill:#fbd7d1;}.cls-7{stroke:#7a2e8d;stroke-width:3px;}.cls-8{fill:#fff;}.cls-9{fill:#ef4f3a;}.cls-10{fill:#00b39b;}.cls-11{fill:#ffe4b3;}.cls-12{fill:#f58120;}.cls-13{fill:#fba922;}.cls-14{fill:#f1c249;}.cls-15{fill:#f7a48c;}.cls-16{fill:#c381d3;}.cls-17{fill:#5ac7eb;}</style></defs><title>Asset 3</title><g id="Layer_2" data-name="Layer 2"><g id="Layer_1-2" data-name="Layer 1"><path class="cls-1" d="M1175.08,145.78,1026.94,110c-7.64-1.85-11.48-9.85-7.75-16,15.93-26.4,53-40.12,90.73-33.34,42.5,7.65,76.71,39.73,79.38,74.5C1189.86,142.28,1182.72,147.63,1175.08,145.78Z"/><path class="cls-2" d="M105.15,164.1l-2.27,5.47c-3.09,7.43-12.15,10.72-20.25,7.35l-43.38-18,.13-.06c3.32-1.43,12.8-5,16.91-13.81,1-2,4.65-10.92-.78-17.79-5.71-7.24-18.33-8.16-23.75-3.93-4.14,3.25-2.42,8.51-6.84,10.22-3.24,1.26-8-.06-10.53-2.7-3.5-3.6-.74-7.33-3.9-10.85a10.85,10.85,0,0,0-4.87-2.92l23.2-55.86C31.9,53.78,41,50.49,49.07,53.85L91.43,71.44c-8.68,4.81-18.32,8.19-29.83,6.87-3.74-.43-14.11-2.08-22.59,3.23C37,82.76,28.88,88.29,30,96.6c1.12,8.75,11.84,15.63,19,14.75,5.46-.66,6.82-5.85,11.69-5.13a10.47,10.47,0,0,1,7.88,7.34c1.15,4.67-3.35,6.42-2.47,10.86s6.91,9.19,12.33,9.38c6.47.22,8.57-6.08,14.77-5,2.21.39,5.12,1.75,6.49,4.14,2.8,4.89-3.62,9.34-3.22,16.87C96.73,156.14,101.72,162,105.15,164.1Z"/><path class="cls-3" d="M130.36,103.37,105.15,164.1c-3.43-2.15-8.42-8-8.76-14.27-.4-7.53,6-12,3.22-16.87-1.37-2.39-4.28-3.75-6.49-4.14-6.2-1.1-8.3,5.2-14.77,5-5.42-.19-11.44-4.83-12.33-9.38s3.62-6.19,2.47-10.86a10.47,10.47,0,0,0-7.88-7.34c-4.87-.72-6.23,4.47-11.69,5.13-7.13.88-17.85-6-19-14.75C28.88,88.29,37,82.76,39,81.54c8.48-5.31,18.85-3.66,22.59-3.23,11.51,1.32,21.15-2.06,29.83-6.87l29.85,12.39C129.38,87.19,133.45,95.94,130.36,103.37Z"/><path class="cls-3" d="M56,145.76c-4.11,8.83-13.59,12.38-16.91,13.81l-.13.07-28.83-12C2,144.3-2,135.56,1,128.13l4.29-10.34a10.85,10.85,0,0,1,4.87,2.92c3.16,3.52.4,7.25,3.9,10.85,2.56,2.64,7.29,4,10.53,2.71,4.42-1.72,2.7-7,6.84-10.23,5.42-4.23,18-3.31,23.75,3.93C60.64,134.84,56.94,143.71,56,145.76Z"/><path class="cls-4" d="M874.79,54.21c4.24-1.44,9.57-2.62,12.72.74s1.84,8.65.39,12.92l-31.28,91.44c-1.1,3.22-2.7,6.9-6,7.54-4.53.87-7.64-4.61-9.23-9.12l-14.56-41.45c-3.31-9.44-12.59-25.1-10.16-35.27C820.74,64.05,861.13,58.88,874.79,54.21Z"/><path class="cls-5" d="M864.55,49.53c4.24-1.43,9.57-2.62,12.72.74s1.85,8.65.39,12.92l-31.27,91.44c-1.1,3.22-2.71,6.9-6,7.54-4.53.87-7.65-4.61-9.23-9.12L816.63,111.6c-3.32-9.44-12.59-25.1-10.17-35.27C810.5,59.37,850.89,54.2,864.55,49.53Z"/><path class="cls-6" d="M1011,133c-1.5,8.2-12.89,10.52-65,27.35-50,16.15-61.12,21-67.12,15.17-4.14-4-3-10.33,11.88-55.74,15.06-46,18.2-52.73,25.53-55,6.55-2,12.49.76,46.93,25.63C1009,123.5,1011.81,128.22,1011,133Z"/><path class="cls-5" d="M1005.64,121.48c-1.5,8.2-12.89,10.51-65,27.35-50,16.15-61.12,21-67.12,15.17-4.14-4-3-10.34,11.88-55.74,15.06-46,18.2-52.74,25.53-55,6.55-2,12.49.76,46.93,25.63C1003.7,112,1006.5,116.75,1005.64,121.48Z"/><line class="cls-7" x1="1373.06" y1="87.53" x2="1451.89" y2="58.86"/><line class="cls-7" x1="1376.4" y1="96.71" x2="1455.24" y2="68.04"/><line class="cls-7" x1="1379.88" y1="105.84" x2="1458.72" y2="77.18"/><line class="cls-7" x1="1383.23" y1="115.02" x2="1462.06" y2="86.36"/><line class="cls-7" x1="1356.71" y1="42.43" x2="1435.55" y2="13.76"/><line class="cls-7" x1="1360.06" y1="51.61" x2="1438.89" y2="22.94"/><line class="cls-7" x1="1363.54" y1="60.74" x2="1442.37" y2="32.08"/><line class="cls-7" x1="1366.88" y1="69.92" x2="1445.72" y2="41.26"/><line class="cls-7" x1="1370.12" y1="79.02" x2="1448.96" y2="50.36"/><line class="cls-7" x1="1432.3" y1="97.94" x2="1405.4" y2="24.26"/><line class="cls-7" x1="1442.03" y1="94.39" x2="1415.13" y2="20.72"/><line class="cls-7" x1="1451.72" y1="90.72" x2="1424.81" y2="17.05"/><line class="cls-7" x1="1461.45" y1="87.17" x2="1434.54" y2="13.5"/><line class="cls-7" x1="1384.51" y1="115.27" x2="1357.6" y2="41.6"/><line class="cls-7" x1="1394.24" y1="111.73" x2="1367.33" y2="38.05"/><line class="cls-7" x1="1403.92" y1="108.06" x2="1377.02" y2="34.38"/><line class="cls-7" x1="1413.65" y1="104.51" x2="1386.75" y2="30.84"/><line class="cls-7" x1="1423.29" y1="101.07" x2="1396.39" y2="27.4"/><rect class="cls-1" x="555.51" y="26.18" width="123.69" height="121.5" rx="14.76" transform="translate(46.63 -163.99) rotate(15.72)"/><ellipse class="cls-8" cx="617.75" cy="87.07" rx="15.41" ry="15.68" transform="translate(366.11 657.93) rotate(-74.23)"/><rect class="cls-3" x="452.68" y="58.81" width="123.69" height="121.5" rx="14.76" transform="translate(51.63 -134.92) rotate(15.72)"/><ellipse class="cls-9" cx="491.7" cy="81.18" rx="15.41" ry="15.68" transform="translate(279.98 532.32) rotate(-74.23)"/><ellipse class="cls-9" cx="514.53" cy="119.56" rx="15.41" ry="15.68" transform="translate(259.67 582.25) rotate(-74.23)"/><ellipse class="cls-9" cx="537.06" cy="156.31" rx="15.41" ry="15.68" transform="translate(240.72 630.69) rotate(-74.23)"/><rect class="cls-10" x="142.53" y="20.17" width="180.46" height="177.71" rx="7.71" transform="translate(-13.57 35.64) rotate(-8.51)"/><rect class="cls-11" x="226.78" y="24.98" width="79.98" height="78.77" rx="14.76" transform="translate(-6.59 40.18) rotate(-8.51)"/><rect class="cls-11" x="159.23" y="115.65" width="79.98" height="78.77" rx="14.76" transform="translate(-20.74 31.18) rotate(-8.51)"/><ellipse class="cls-12" cx="187.59" cy="77.26" rx="29.03" ry="28.59" transform="translate(-9.37 28.6) rotate(-8.51)"/><ellipse class="cls-12" cx="278.45" cy="142.45" rx="29.03" ry="28.59" transform="translate(-18.01 42.76) rotate(-8.51)"/><ellipse class="cls-11" cx="751.23" cy="125.34" rx="55.73" ry="55.12"/><ellipse class="cls-13" cx="751.23" cy="125.34" rx="45.04" ry="44.55"/><rect class="cls-14" x="1487.38" y="46.13" width="40.68" height="39.79" rx="7.17" transform="matrix(0.96, 0.29, -0.29, 0.96, 81.9, -428.56)"/><rect class="cls-1" x="1530.48" y="59" width="40.68" height="39.79" rx="7.17" transform="translate(87.38 -440.35) rotate(16.62)"/><rect class="cls-14" x="1572.93" y="71.67" width="40.68" height="39.79" rx="7.17" transform="translate(92.78 -451.96) rotate(16.62)"/><rect class="cls-14" x="1615" y="84.23" width="40.68" height="39.79" rx="7.17" transform="translate(98.13 -463.47) rotate(16.62)"/><rect class="cls-14" x="1475.06" y="88.13" width="40.68" height="39.79" rx="7.17" transform="translate(93.4 -423.28) rotate(16.62)"/><rect class="cls-14" x="1518.15" y="100.99" width="40.68" height="39.79" rx="7.17" transform="translate(98.88 -435.07) rotate(16.62)"/><rect class="cls-1" x="1560.6" y="113.66" width="40.68" height="39.79" rx="7.17" transform="translate(104.28 -446.68) rotate(16.62)"/><rect class="cls-14" x="1602.67" y="126.22" width="40.68" height="39.79" rx="7.17" transform="translate(109.63 -458.19) rotate(16.62)"/><rect class="cls-14" x="1462.54" y="130.06" width="40.68" height="39.79" rx="7.17" transform="translate(104.87 -417.94) rotate(16.62)"/><rect class="cls-14" x="1505.63" y="142.93" width="40.68" height="39.79" rx="7.17" transform="translate(110.35 -429.73) rotate(16.62)"/><rect class="cls-14" x="1548.08" y="155.6" width="40.68" height="39.79" rx="7.17" transform="translate(115.75 -441.35) rotate(16.62)"/><rect class="cls-1" x="1590.15" y="168.16" width="40.68" height="39.79" rx="7.17" transform="translate(121.1 -452.86) rotate(16.62)"/><rect class="cls-1" x="1499.77" y="3.24" width="40.68" height="39.79" rx="7.17" transform="translate(70.15 -433.89) rotate(16.62)"/><rect class="cls-14" x="1542.86" y="16.1" width="40.68" height="39.79" rx="7.17" transform="translate(75.63 -445.68) rotate(16.62)"/><rect class="cls-14" x="1585.31" y="28.78" width="40.68" height="39.79" rx="7.17" transform="translate(81.03 -457.3) rotate(16.62)"/><rect class="cls-14" x="1627.38" y="41.34" width="40.68" height="39.79" rx="7.17" transform="translate(86.38 -468.81) rotate(16.62)"/><rect class="cls-15" x="368.69" y="8.82" width="7.61" height="74.39" transform="translate(365.24 -329.25) rotate(81.85)"/><rect class="cls-15" x="371.16" y="26" width="7.61" height="74.39" transform="translate(384.36 -316.94) rotate(81.85)"/><rect class="cls-15" x="373.47" y="42.13" width="7.61" height="74.39" transform="translate(402.31 -305.38) rotate(81.85)"/><rect class="cls-15" x="375.95" y="59.47" width="7.61" height="74.39" transform="translate(421.6 -292.96) rotate(81.85)"/><rect class="cls-15" x="378.34" y="76.16" width="7.61" height="74.39" transform="translate(440.18 -281) rotate(81.85)"/><rect class="cls-15" x="380.64" y="92.26" width="7.61" height="74.39" transform="matrix(0.14, 0.99, -0.99, 0.14, 458.09, -269.47)"/><rect class="cls-15" x="383.1" y="109.43" width="7.61" height="74.39" transform="translate(477.2 -257.16) rotate(81.85)"/><path class="cls-6" d="M1657.31,157.57l10.89-44.09a6.18,6.18,0,0,1,7.66-4.17l42.91,10.59c5.39,1.33,6.82,7.86,2.33,10.66l-53.8,33.5C1662.51,167,1656,162.82,1657.31,157.57Z"/><path class="cls-10" d="M1303.7,123.67l48.64-18.94c3.48-1.36,7.51.63,9,4.44l18.43,47.34c2.32,6-2.87,11.61-8.47,9.24l-67.09-28.4C1298.23,134.82,1297.9,125.92,1303.7,123.67Z"/><path class="cls-6" d="M1331.49,32.54l20.74,53.27A7.4,7.4,0,0,1,1348,95.4l-47.43,18.46a7.39,7.39,0,0,1-9.63-9.46l26.68-71.74A7.42,7.42,0,0,1,1331.49,32.54Z"/><circle class="cls-10" cx="1226.7" cy="96.65" r="18.99"/><circle class="cls-16" cx="1174.61" cy="53.2" r="19.44"/><circle class="cls-6" cx="445.99" cy="31.46" r="19.44"/><circle class="cls-16" cx="1038.99" cy="169.46" r="19.44"/><rect class="cls-17" x="1089.44" y="157.41" width="208.47" height="16.83" rx="4.48" transform="translate(-10.53 118.52) rotate(-5.66)"/></g></g></svg>