<svg xmlns="http://www.w3.org/2000/svg" xmlns:xlink="http://www.w3.org/1999/xlink" viewBox="0 0 1681.31 374.01"><defs><style>.cls-1,.cls-28{fill:none;}.cls-2{fill:#b2ddc8;}.cls-3{fill:#fff;}.cls-4{fill:#fbc097;}.cls-5{fill:#ef4f3a;}.cls-6{fill:#ffe4b3;}.cls-7{fill:#fba922;}.cls-8{fill:#abddef;}.cls-9{fill:#fbd7d1;}.cls-10{font-size:43.61px;fill:#f9e6a3;font-family:Futura-MediumItalic, Futura MediumItalic;font-weight:500;font-style:italic;}.cls-11{letter-spacing:-0.01em;}.cls-12{fill:#9d0b00;}.cls-13{clip-path:url(#clip-path);}.cls-14{fill:#5cbc91;}.cls-15{clip-path:url(#clip-path-2);}.cls-16{fill:#b60f00;}.cls-17{fill:#4db268;}.cls-18,.cls-19{fill:#385f3d;}.cls-19,.cls-20{font-size:38.15px;font-family:Futura-Bold, Futura Bold;font-weight:700;}.cls-20,.cls-21{fill:#dcf1d9;}.cls-22{font-size:27.09px;fill:#daef43;}.cls-23{fill:#f58120;}.cls-24{fill:#77c5e8;}.cls-25{fill:#f4ca19;}.cls-26{fill:#f1c249;}.cls-27{fill:#f7a48c;}.cls-28{stroke:#be7cce;stroke-miterlimit:10;stroke-width:3px;}</style><clipPath id="clip-path"><rect class="cls-1" x="467.42" y="208.28" width="129.41" height="129.41" rx="22.52" transform="translate(-0.69 1.35) rotate(-0.15)"/></clipPath><clipPath id="clip-path-2"><rect class="cls-1" x="675.75" y="212.17" width="129.41" height="129.41" rx="22.52" transform="translate(-0.7 1.88) rotate(-0.15)"/></clipPath></defs><g id="Layer_2" data-name="Layer 2"><g id="Layer_1-2" data-name="Layer 1"><rect class="cls-2" x="59.38" y="189.66" width="89.41" height="87.83" rx="14.76" transform="translate(-74.03 50.09) rotate(-20.13)"/><ellipse class="cls-3" cx="104.38" cy="233.49" rx="11.34" ry="11.14" transform="translate(-73.83 50.04) rotate(-20.08)"/><rect class="cls-4" x="12.95" y="252.31" width="89.41" height="87.83" rx="14.76" transform="translate(-98.43 37.94) rotate(-20.13)"/><ellipse class="cls-5" cx="28.03" cy="283.39" rx="11.34" ry="11.14" transform="translate(-95.61 26.86) rotate(-20.08)"/><ellipse class="cls-5" cx="57.65" cy="296.22" rx="11.34" ry="11.14" transform="translate(-98.21 37.81) rotate(-20.08)"/><ellipse class="cls-5" cx="86.41" cy="308.21" rx="11.34" ry="11.14" transform="translate(-100.58 48.41) rotate(-20.08)"/><ellipse class="cls-6" cx="328.78" cy="293.56" rx="53.57" ry="52.99"/><ellipse class="cls-7" cx="328.78" cy="293.56" rx="43.3" ry="42.83"/><circle class="cls-8" cx="18.69" cy="168.09" r="18.69"/><circle class="cls-9" cx="59.34" cy="10.56" r="10.56"/><circle class="cls-4" cx="411.29" cy="248.07" r="21.02"/><text class="cls-10" transform="matrix(1, 0, 0, 1, 623.74, 279.78)"><tspan class="cls-11">t</tspan><tspan x="14.17" y="0">o</tspan></text><rect class="cls-12" x="476.11" y="216.7" width="129.41" height="129.41" rx="22.52" transform="translate(-0.71 1.37) rotate(-0.15)"/><rect class="cls-3" x="467.42" y="208.28" width="129.41" height="129.41" rx="22.52" transform="translate(-0.69 1.35) rotate(-0.15)"/><g class="cls-13"><rect class="cls-14" x="453.2" y="200.62" width="155.51" height="56.5" transform="translate(-0.58 1.35) rotate(-0.15)"/></g><path d="M487.42,224.33a38.31,38.31,0,0,1,6.07-.46c3.91,0,6.58.79,8.51,2.39s3.28,4.12,3.28,7.66c0,3.74-1.25,6.51-3.22,8.31s-5.39,2.85-9.44,2.86a39.78,39.78,0,0,1-5.15-.26ZM491.27,242a14.84,14.84,0,0,0,2.12.09c4.95,0,7.89-2.74,7.87-8,0-4.6-2.64-7.24-7.43-7.23a12.45,12.45,0,0,0-2.6.23Z"/><path d="M520.25,235.57l-7.86,0,0,6.11,8.79,0v3.14l-12.6,0L508.55,224l12.14,0v3.13l-8.33,0,0,5.36,7.86,0Z"/><path d="M539.52,244.15a13.59,13.59,0,0,1-5.41,1c-6.62,0-10.66-4.13-10.68-10.48,0-6.86,4.76-11,11.14-11a11.61,11.61,0,0,1,5,.91l-.82,3a9.93,9.93,0,0,0-4.06-.81c-4.26,0-7.31,2.68-7.3,7.69,0,4.6,2.7,7.5,7.28,7.49a11.07,11.07,0,0,0,4.16-.77Z"/><path d="M547.51,223.55a38,38,0,0,1-3.33,7.92l-2.34.24a46.74,46.74,0,0,0,2-7.87Z"/><path d="M549.6,244.74v-2.31l2.38-2.22c4.72-4.39,6.94-6.81,7-9.47,0-1.82-1-3.38-3.6-3.37a7.22,7.22,0,0,0-4.29,1.68l-1.12-2.7a10,10,0,0,1,6.17-2.08c4.45,0,6.64,2.79,6.65,6.08,0,3.54-2.52,6.38-6,9.64L555,241.52v.06l8.24,0v3.15Z"/><path d="M566.94,240.77a10.26,10.26,0,0,0,4.58,1.22c2.91,0,4.08-1.65,4.06-3.23,0-2.37-2.26-3.4-4.58-3.4h-1.74v-2.78H571c1.76,0,4-.8,4-2.8,0-1.39-1-2.52-3.22-2.52a8.25,8.25,0,0,0-4.11,1.27l-.87-2.75a11.19,11.19,0,0,1,5.79-1.55c4.15,0,6.28,2.28,6.28,4.91,0,2.1-1.23,3.82-3.68,4.71v.06a5.07,5.07,0,0,1,4.42,5c0,3.4-2.84,6.11-7.81,6.12a11,11,0,0,1-5.63-1.38Z"/><path d="M517.68,302.85c0-5.43,3.07-9.11,8-11.29v-.16c-4.35-2.24-6.49-5.9-6.5-9.83,0-7.59,6.79-12.61,15.75-12.63,10.5,0,14.87,6,14.88,11.45,0,3.87-2.07,7.68-6.49,9.92v.16c4.35,1.68,8.25,5.34,8.27,11.13,0,8.14-6.79,13.63-17.21,13.66C522.94,315.29,517.69,308.92,517.68,302.85Zm23.18-.45c0-3.9-3-6.23-7.09-7.32-3.42,1-5.41,3.44-5.4,6.66a6.17,6.17,0,0,0,6.38,6.3C538.42,308,540.87,305.6,540.86,302.4ZM529,281.2c0,3,2.71,5,6.35,6.08a6.14,6.14,0,0,0,4.53-5.72c0-2.76-1.61-5.56-5.48-5.55A5,5,0,0,0,529,281.2Z"/><rect class="cls-12" x="684.97" y="220.95" width="129.41" height="129.41" rx="22.52" transform="translate(-0.72 1.91) rotate(-0.15)"/><rect class="cls-3" x="675.75" y="212.17" width="129.41" height="129.41" rx="22.52" transform="translate(-0.7 1.88) rotate(-0.15)"/><g class="cls-15"><rect class="cls-14" x="661.53" y="204.5" width="155.51" height="56.5" transform="translate(-0.59 1.88) rotate(-0.15)"/></g><path d="M696.48,229.69a38.44,38.44,0,0,1,6.08-.46c3.91,0,6.58.8,8.5,2.39s3.28,4.12,3.29,7.66a10.8,10.8,0,0,1-3.23,8.31c-2.08,1.88-5.38,2.85-9.44,2.86a40,40,0,0,1-5.15-.26Zm3.85,17.66a13.69,13.69,0,0,0,2.13.09c4.94,0,7.88-2.73,7.87-8,0-4.61-2.65-7.25-7.44-7.24a12.41,12.41,0,0,0-2.59.23Z"/><path d="M729.32,240.93l-7.86,0v6.12l8.79,0v3.14l-12.6,0,0-20.86,12.14,0v3.14l-8.33,0v5.36l7.86,0Z"/><path d="M748.58,249.51a13.37,13.37,0,0,1-5.41,1c-6.61,0-10.66-4.13-10.67-10.48,0-6.86,4.76-11,11.14-11a11.8,11.8,0,0,1,5.05.91l-.82,3a9.94,9.94,0,0,0-4.07-.81c-4.25,0-7.3,2.68-7.29,7.69,0,4.6,2.7,7.5,7.28,7.49a11,11,0,0,0,4.15-.76Z"/><path d="M756.58,228.91a38.51,38.51,0,0,1-3.33,7.92l-2.34.24a45.55,45.55,0,0,0,2-7.87Z"/><path d="M758.67,250.11v-2.32l2.38-2.22c4.72-4.39,7-6.81,7-9.47,0-1.81-1-3.38-3.61-3.37a7.24,7.24,0,0,0-4.29,1.68l-1.12-2.7a10.11,10.11,0,0,1,6.17-2.08c4.46,0,6.65,2.79,6.66,6.08,0,3.54-2.53,6.39-6,9.64l-1.73,1.53V247l8.24,0v3.15Z"/><path d="M776,246.13a10.08,10.08,0,0,0,4.59,1.22c2.9,0,4.07-1.65,4.06-3.23,0-2.37-2.26-3.4-4.58-3.4h-1.74V238H780c1.76,0,4-.81,4-2.81,0-1.39-1-2.52-3.23-2.52a8.32,8.32,0,0,0-4.11,1.27l-.86-2.74a11.05,11.05,0,0,1,5.78-1.56c4.16,0,6.28,2.28,6.29,4.91,0,2.1-1.23,3.82-3.68,4.71v.06a5.08,5.08,0,0,1,4.42,5c0,3.4-2.84,6.11-7.81,6.12a10.88,10.88,0,0,1-5.63-1.38Z"/><path d="M716.67,282.73h-.13L708,286.8l-1.76-7.86,11.87-5.55,8.64,0,.12,44.8-10.14,0Z"/><path d="M773.68,273.25l0,6.59L755.33,318.1l-11.12,0,18.37-36.07v-.14L742,282l0-8.63Z"/><path class="cls-16" d="M1143.3,312c-7.82,3.29-13.75,9.4-15.35,16.92-34.19-.22-68.87-5-102.76-.28s-66.18,14.91-97.62,26c-4.42-6.26-12.38-9.91-20.73-9.59q-7.67-35.81-15.48-71.58c7.31-5.74,13-13.88,14.17-22.58,31.25-11,63.34-21.24,96.9-25.93,33.88-4.73,68.56.06,102.74.28,4.83,7.09,12.95,13.46,22.42,15.28Q1135.45,276.27,1143.3,312Z"/><path class="cls-16" d="M1101.26,216.1c-33.56-.4-67.57-4.87-100.85-.32-32.9,4.5-64.48,14.59-95.11,25.29-9.9,3.51-19.73,7.17-29.53,10.87q3,13.43,5.9,26.86l15,68.35,5.88,26.77,0,.09c9.49-3.73,19-7.36,28.67-10.79a.29.29,0,0,1,0-.09c30.86-10.83,62.81-20.84,96-25.37s67.28-.08,100.85.32a214.14,214.14,0,0,0,31.35-2.05q-2.94-13.44-5.9-26.86l-15-68.27q-3-13.43-5.9-26.85A214.37,214.37,0,0,1,1101.26,216.1Zm42,95.89c-7.82,3.29-13.75,9.4-15.35,16.92-34.19-.22-68.87-5-102.76-.28s-66.18,14.91-97.62,26c-4.42-6.26-12.38-9.91-20.73-9.59q-7.67-35.81-15.48-71.58c7.31-5.74,13-13.88,14.17-22.58,31.25-11,63.34-21.24,96.9-25.93,33.88-4.73,68.56.06,102.74.28,4.83,7.09,12.95,13.46,22.42,15.28Q1135.45,276.27,1143.3,312Z"/><path class="cls-17" d="M1148.19,299.8c-7.82,3.29-13.75,9.39-15.35,16.92-34.19-.22-68.87-5-102.76-.28s-66.18,14.9-97.62,26c-4.42-6.25-12.38-9.9-20.73-9.59q-7.66-35.79-15.48-71.58c7.31-5.73,13-13.88,14.17-22.57,31.25-11,63.34-21.25,96.9-25.93,33.88-4.74,68.56.06,102.74.28,4.83,7.09,13,13.46,22.42,15.28Q1140.34,264.06,1148.19,299.8Z"/><path class="cls-18" d="M1106.15,203.9c-33.56-.4-67.57-4.87-100.85-.31-32.9,4.49-64.48,14.59-95.11,25.29-9.9,3.5-19.73,7.16-29.53,10.86q3,13.44,5.9,26.86l15,68.35,5.88,26.77,0,.09c9.49-3.72,19-7.35,28.67-10.79a.24.24,0,0,1,0-.08c30.86-10.83,62.81-20.85,96-25.37s67.29-.09,100.85.31a212.76,212.76,0,0,0,31.35-2.05q-2.94-13.43-5.9-26.86l-15-68.26q-3-13.43-5.9-26.86A213,213,0,0,1,1106.15,203.9Zm42,95.9c-7.82,3.29-13.75,9.39-15.35,16.92-34.19-.22-68.87-5-102.76-.28s-66.18,14.9-97.62,26c-4.42-6.25-12.38-9.9-20.73-9.59q-7.66-35.79-15.48-71.58c7.31-5.73,13-13.88,14.17-22.57,31.25-11,63.34-21.25,96.9-25.93,33.88-4.74,68.56.06,102.74.28,4.83,7.09,13,13.46,22.42,15.28Q1140.34,264.06,1148.19,299.8Z"/><text class="cls-19" transform="matrix(1.03, -0.51, 0.44, 0.9, 944.94, 309.1)"> </text><text class="cls-19" transform="matrix(1.05, -0.48, 0.42, 0.91, 953.13, 305.04)"> </text><text class="cls-19" transform="translate(961.43 301.23) rotate(-22.96) scale(1.15 1)"> </text><text class="cls-19" transform="translate(969.86 297.65) rotate(-21.28) scale(1.15 1)"> </text><text class="cls-19" transform="translate(978.36 294.34) rotate(-19.62) scale(1.15 1)"> </text><text class="cls-19" transform="matrix(1.1, -0.33, 0.29, 0.96, 986.8, 291.15)">3</text><text class="cls-19" transform="matrix(1.12, -0.26, 0.22, 0.97, 1008, 284.74)">0</text><text class="cls-19" transform="matrix(1.14, -0.18, 0.16, 0.99, 1029.62, 279.8)">0</text><text class="cls-19" transform="translate(1051.48 276.33) rotate(-5.12) scale(1.15 1)">0</text><text class="cls-19" transform="translate(1073.62 274.44) rotate(-1.93) scale(1.15 1)">/</text><text class="cls-19" transform="translate(1088.44 273.95) rotate(0.47) scale(1.15 1)">-</text><g id="layer1"><path id="path4158" class="cls-18" d="M969,297.54l-17.74-11.69-.84-2.88c6.27-.92,10.86-2.5,10.33-7.86l-13.12,2.69,1.12-3.58,10.49-2.07c-2.53-2.58-7-2-13.78-.36l1.36-3.56L969,263.52,967.76,267l-6.13,1.3a6.4,6.4,0,0,1,3,2.84l6.34-1.4-1.24,3.46-4.22,1c.77,4.6-3,8.23-8.73,10.08l18,12.07L969,297.53h0Z"/></g><text class="cls-20" transform="matrix(1.03, -0.51, 0.44, 0.9, 948.06, 306.54)"> </text><text class="cls-20" transform="translate(956.25 302.48) rotate(-24.65) scale(1.15 1)"> </text><text class="cls-20" transform="translate(964.55 298.67) rotate(-22.96) scale(1.15 1)"> </text><text class="cls-20" transform="matrix(1.07, -0.42, 0.36, 0.93, 972.98, 295.1)"> </text><text class="cls-20" transform="translate(981.48 291.79) rotate(-19.62) scale(1.15 1)"> </text><text class="cls-20" transform="translate(989.92 288.6) rotate(-16.8) scale(1.15 1)">3</text><text class="cls-20" transform="matrix(1.12, -0.26, 0.22, 0.97, 1011.12, 282.18)">0</text><text class="cls-20" transform="translate(1032.74 277.24) rotate(-9) scale(1.15 1)">0</text><text class="cls-20" transform="matrix(1.15, -0.1, 0.09, 1, 1054.6, 273.77)">0</text><text class="cls-20" transform="translate(1076.74 271.89) rotate(-1.93) scale(1.15 1)">/</text><text class="cls-20" transform="translate(1091.56 271.4) rotate(0.47) scale(1.15 1)">-</text><g id="layer1-2" data-name="layer1"><path id="path4158-2" data-name="path4158" class="cls-21" d="M972.11,295l-17.74-11.69-.84-2.87c6.27-.93,10.86-2.51,10.33-7.87l-13.12,2.7,1.11-3.58,10.5-2.07c-2.53-2.58-7-2-13.78-.37l1.36-3.55L972.11,261l-1.23,3.49-6.13,1.29a6.47,6.47,0,0,1,3,2.85l6.33-1.41-1.23,3.46-4.22,1c.77,4.61-3,8.24-8.73,10.09l18,12.06L972.11,295Z"/></g><text class="cls-22" transform="translate(889.71 220.34) rotate(-18.75) scale(1.15 1)">R</text><text class="cls-22" transform="translate(907.72 214.25) rotate(-16.87) scale(1.15 1)">e</text><text class="cls-22" transform="matrix(1.11, -0.3, 0.26, 0.97, 923.64, 209.41)">g</text><text class="cls-22" transform="translate(940.48 204.93) rotate(-13.71) scale(1.15 1)">i</text><text class="cls-22" transform="matrix(1.13, -0.25, 0.22, 0.98, 947.82, 203.09)">s</text><text class="cls-22" transform="translate(963.59 199.64) rotate(-11.05) scale(1.15 1)">t</text><text class="cls-22" transform="translate(973.6 197.68) rotate(-9.93) scale(1.15 1)">r</text><text class="cls-22" transform="translate(984.27 195.77) rotate(-8.45) scale(1.15 1)">a</text><text class="cls-22" transform="matrix(1.14, -0.14, 0.12, 0.99, 1000.71, 193.37)">t</text><text class="cls-22" transform="translate(1010.66 192.15) rotate(-6.08) scale(1.15 1)">i</text><text class="cls-22" transform="translate(1018.2 191.28) rotate(-4.75) scale(1.15 1)">o</text><text class="cls-22" transform="translate(1035.67 189.83) rotate(-2.9) scale(1.15 1)">n</text><text class="cls-22" transform="matrix(1.15, -0.03, 0.03, 1, 1052.95, 189.01)"> </text><text class="cls-22" transform="translate(1060.62 188.75) rotate(-0.25) scale(1.15 1)">F</text><text class="cls-22" transform="translate(1077.13 188.67) rotate(1.49) scale(1.15 1)">e</text><text class="cls-22" transform="translate(1093.69 189.09) rotate(3.25) scale(1.15 1)">e</text><path class="cls-23" d="M1322.92,264.77l2.82,5.74c3.84,7.82,0,17.53-8.47,21.71l-45.59,22.39c0-.06,0-.1,0-.15,1.21-3.72,5.09-14,.85-23.6-1-2.23-5.56-11.57-15-12.06-10-.53-19.71,9.07-20.14,16.49-.32,5.68,5.18,8,3.42,12.86-1.28,3.53-5.73,6.43-9.71,6.62-5.43.28-6.49-4.62-11.6-4.57a11.63,11.63,0,0,0-5.84,1.87l-28.84-58.72c-3.83-7.8,0-17.52,8.48-21.7l44.52-21.87c-2.28,10.49-6.41,20.73-15.7,29.14-3,2.73-11.77,10-13.51,20.66-.42,2.48-1.73,13.05,5.77,18.11,7.91,5.34,21.15,1.54,25.53-4.88,3.36-4.92.12-9.72,4.17-13.16a11.31,11.31,0,0,1,11.59-1.16c4.61,2.39,2.82,7.3,7.06,9.75s12.41.94,16.42-3.32c4.8-5.11,1.18-11.3,6.5-15.56,1.89-1.51,5.07-2.91,8-2.32,6,1.21,5,9.61,11.42,14.66C1310.45,265.92,1318.72,266,1322.92,264.77Z"/><path class="cls-24" d="M1291.57,200.94l31.35,63.83c-4.2,1.25-12.47,1.15-17.84-3.07-6.41-5.05-5.44-13.45-11.42-14.66-2.92-.59-6.1.81-8,2.32-5.32,4.26-1.7,10.45-6.5,15.56-4,4.26-12.08,5.84-16.42,3.32s-2.45-7.36-7.06-9.75a11.31,11.31,0,0,0-11.59,1.16c-4,3.44-.81,8.24-4.17,13.16-4.38,6.42-17.62,10.22-25.53,4.88-7.5-5.06-6.19-15.63-5.77-18.11,1.74-10.68,10.49-17.93,13.51-20.66,9.29-8.41,13.42-18.65,15.7-29.14l31.37-15.41C1277.73,190.19,1287.74,193.13,1291.57,200.94Z"/><path class="cls-24" d="M1272.94,291.62c4.24,9.64.36,19.88-.85,23.6,0,0,0,.09,0,.15l-30.31,14.88c-8.51,4.18-18.52,1.25-22.36-6.56l-5.33-10.86a11.75,11.75,0,0,1,5.85-1.88c5.11,0,6.17,4.86,11.59,4.58,4-.19,8.43-3.09,9.72-6.62,1.76-4.82-3.75-7.18-3.43-12.86.43-7.42,10.19-17,20.15-16.49C1267.39,280.05,1272,289.39,1272.94,291.62Z"/><rect class="cls-25" x="1526.21" y="208.13" width="135.75" height="133.69" rx="7.71" transform="translate(72.95 -275.36) rotate(10.1)"/><rect class="cls-6" x="1598.96" y="221.67" width="60.17" height="59.25" rx="14.76" transform="translate(69.34 -281.86) rotate(10.1)"/><rect class="cls-6" x="1529.05" y="270.09" width="60.17" height="59.25" rx="14.76" transform="translate(76.75 -268.84) rotate(10.1)"/><ellipse class="cls-23" cx="1569.51" cy="241.48" rx="21.51" ry="21.84" transform="translate(1056.46 1744.29) rotate(-79.9)"/><ellipse class="cls-23" cx="1618.63" cy="309.77" rx="21.51" ry="21.84" transform="translate(1029.74 1848.97) rotate(-79.9)"/><path class="cls-2" d="M1498.46,278.64l-12.28,53.17a7.08,7.08,0,0,1-8.49,5.29l-47.34-10.94a7.07,7.07,0,0,1-2.51-12.65l59.62-42.23A7.08,7.08,0,0,1,1498.46,278.64Z"/><path class="cls-4" d="M1432.94,184.64l52.84-22.26a7.43,7.43,0,0,1,9.73,4l19.81,47a7.42,7.42,0,0,1-9.23,9.91l-72.65-24.78A7.44,7.44,0,0,1,1432.94,184.64Z"/><path class="cls-26" d="M56.82,46.37l50.69-20.21a7.07,7.07,0,0,1,9.18,4l18,45.12a7.06,7.06,0,0,1-9,9.27L57,59.6A7.08,7.08,0,0,1,56.82,46.37Z"/><circle class="cls-8" cx="1651.76" cy="176.46" r="19.76"/><circle class="cls-4" cx="1326.54" cy="190.69" r="19.76"/><rect class="cls-27" x="231.96" y="175.8" width="7.96" height="77.83" transform="translate(521.37 72.23) rotate(111.17)"/><rect class="cls-27" x="225.4" y="192.73" width="7.96" height="77.83" transform="translate(528.23 101.4) rotate(111.17)"/><rect class="cls-27" x="219.24" y="208.63" width="7.96" height="77.83" transform="matrix(-0.36, 0.93, -0.93, -0.36, 534.68, 128.78)"/><rect class="cls-27" x="212.63" y="225.72" width="7.96" height="77.83" transform="translate(541.6 158.21) rotate(111.17)"/><rect class="cls-27" x="206.26" y="242.17" width="7.96" height="77.83" transform="translate(548.27 186.54) rotate(111.17)"/><rect class="cls-27" x="200.11" y="258.03" width="7.96" height="77.83" transform="matrix(-0.36, 0.93, -0.93, -0.36, 554.7, 213.86)"/><rect class="cls-27" x="193.56" y="274.95" width="7.96" height="77.83" transform="translate(561.56 243.01) rotate(111.17)"/><rect class="cls-27" x="1623.98" y="46.18" width="5.8" height="76.28" transform="translate(1155.02 -1474.91) rotate(70.2)"/><rect class="cls-27" x="1628.46" y="58.63" width="5.8" height="76.28" transform="matrix(0.34, 0.94, -0.94, 0.34, 1169.7, -1470.89)"/><rect class="cls-27" x="1632.67" y="70.32" width="5.8" height="76.28" transform="translate(1183.48 -1467.13) rotate(70.2)"/><rect class="cls-27" x="1637.19" y="82.88" width="5.8" height="76.28" transform="matrix(0.34, 0.94, -0.94, 0.34, 1198.29, -1463.08)"/><rect class="cls-27" x="1641.55" y="94.97" width="5.8" height="76.28" transform="translate(1212.54 -1459.18) rotate(70.2)"/><line class="cls-28" x1="1363.76" y1="221.58" x2="1410.87" y2="295.86"/><line class="cls-28" x1="1355.11" y1="227.07" x2="1402.22" y2="301.35"/><line class="cls-28" x1="1346.54" y1="232.69" x2="1393.65" y2="306.97"/><line class="cls-28" x1="1337.89" y1="238.18" x2="1385" y2="312.46"/><line class="cls-28" x1="1406.27" y1="194.68" x2="1453.37" y2="268.96"/><line class="cls-28" x1="1397.62" y1="200.18" x2="1444.72" y2="274.46"/><line class="cls-28" x1="1389.04" y1="205.8" x2="1436.15" y2="280.08"/><line class="cls-28" x1="1380.4" y1="211.29" x2="1427.5" y2="285.57"/><line class="cls-28" x1="1371.81" y1="216.65" x2="1418.92" y2="290.93"/><line class="cls-28" x1="1366.44" y1="284.59" x2="1435.83" y2="240.45"/><line class="cls-28" x1="1372.26" y1="293.76" x2="1441.65" y2="249.62"/><line class="cls-28" x1="1378.2" y1="302.85" x2="1447.59" y2="258.71"/><line class="cls-28" x1="1384.02" y1="312.02" x2="1453.41" y2="267.88"/><line class="cls-28" x1="1337.92" y1="239.55" x2="1407.31" y2="195.41"/><line class="cls-28" x1="1343.74" y1="248.72" x2="1413.13" y2="204.58"/><line class="cls-28" x1="1349.68" y1="257.81" x2="1419.07" y2="213.67"/><line class="cls-28" x1="1355.51" y1="266.98" x2="1424.9" y2="222.84"/><line class="cls-28" x1="1361.2" y1="276.07" x2="1430.59" y2="231.93"/><line class="cls-28" x1="79.36" y1="81.02" x2="54.73" y2="143.47"/><line class="cls-28" x1="72.08" y1="78.15" x2="47.46" y2="140.6"/><line class="cls-28" x1="64.76" y1="75.4" x2="40.14" y2="137.84"/><line class="cls-28" x1="57.49" y1="72.53" x2="32.86" y2="134.98"/><line class="cls-28" x1="115.06" y1="95.14" x2="90.43" y2="157.59"/><line class="cls-28" x1="107.78" y1="92.27" x2="83.15" y2="154.72"/><line class="cls-28" x1="100.46" y1="89.51" x2="75.84" y2="151.96"/><line class="cls-28" x1="93.19" y1="86.65" x2="68.56" y2="149.1"/><line class="cls-28" x1="86.01" y1="83.77" x2="61.39" y2="146.22"/><path class="cls-23" d="M1655.71,51.82,1582.9,77.88a3.91,3.91,0,0,1-5.2-3c-3.09-18,7.8-36.66,25.64-44.48,20-8.75,44.15-2,54.47,15.73A3.92,3.92,0,0,1,1655.71,51.82Z"/><rect class="cls-25" x="1578.58" y="67.91" width="86.17" height="6.96" rx="3.42" transform="translate(3172.56 -407.79) rotate(160.31)"/></g></g></svg>